<svg width="14" height="14" viewBox="0 0 14 14" fill="none" xmlns="http://www.w3.org/2000/svg">
<path d="M7.00033 1.16797C3.79199 1.16797 1.16699 3.79297 1.16699 7.0013C1.16699 10.2096 3.79199 12.8346 7.00033 12.8346C10.2087 12.8346 12.8337 10.2096 12.8337 7.0013C12.8337 3.79297 10.2087 1.16797 7.00033 1.16797ZM9.04199 8.16797C8.86699 8.45964 8.51699 8.51797 8.22533 8.4013L6.70866 7.5263C6.53366 7.40964 6.41699 7.23464 6.41699 7.0013V4.08464C6.41699 3.73464 6.65033 3.5013 7.00033 3.5013C7.35033 3.5013 7.58366 3.73464 7.58366 4.08464V6.6513L8.80866 7.3513C9.10033 7.5263 9.15866 7.8763 9.04199 8.16797Z" fill="#BABABA"/>
</svg>