<svg width="21" height="19" viewBox="0 0 21 19" fill="none" xmlns="http://www.w3.org/2000/svg">
<path d="M19.0729 0.672743H8.03125C7.61685 0.672743 7.21942 0.837363 6.9264 1.13039C6.63337 1.42341 6.46875 1.82084 6.46875 2.23524V5.43837H1.5625C1.1481 5.43837 0.750671 5.60299 0.457646 5.89601C0.16462 6.18904 0 6.58647 0 7.00087V17.3134C0.00588134 17.5375 0.083946 17.7538 0.222589 17.9301C0.361232 18.1063 0.55305 18.2331 0.769528 18.2916C0.986007 18.3501 1.21559 18.3372 1.42414 18.2548C1.63269 18.1724 1.80908 18.0249 1.92708 17.8342L3.55208 15.23H13.9687C14.3832 15.23 14.7806 15.0654 15.0736 14.7724C15.3666 14.4794 15.5312 14.0819 15.5312 13.6675V9.68316H17.6146L18.776 11.4436C18.8993 11.6306 19.0796 11.773 19.2902 11.8495C19.5007 11.926 19.7303 11.9325 19.9449 11.8682C20.1595 11.8039 20.3476 11.6721 20.4814 11.4924C20.6152 11.3127 20.6874 11.0947 20.6875 10.8707V2.23524C20.6876 2.0256 20.6455 1.81807 20.5638 1.62502C20.482 1.43197 20.3622 1.25735 20.2116 1.11156C20.0609 0.965766 19.8825 0.851781 19.6869 0.776393C19.4912 0.701004 19.2824 0.665755 19.0729 0.672743ZM14.4583 13.6675C14.4583 13.8057 14.4035 13.9381 14.3058 14.0358C14.2081 14.1335 14.0756 14.1884 13.9375 14.1884H3.28125L3.125 14.2196C3.01047 14.2609 2.91077 14.3352 2.83854 14.4332L1.05208 17.3134V7.01128C1.05208 6.87315 1.10696 6.74068 1.20463 6.643C1.30231 6.54533 1.43478 6.49045 1.57292 6.49045H13.9687C14.1069 6.49045 14.2394 6.54533 14.337 6.643C14.4347 6.74068 14.4896 6.87315 14.4896 7.01128L14.4583 13.6675ZM19.5937 10.8707C19.5156 10.7873 18.1875 8.63629 18.0885 8.7092C18.0885 8.57899 15.6198 8.66233 15.4844 8.64149V6.98524C15.4844 6.57084 15.3198 6.17341 15.0267 5.88039C14.7337 5.58736 14.3363 5.42274 13.9219 5.42274H7.51042V2.23524C7.51042 2.09711 7.56529 1.96463 7.66296 1.86696C7.76064 1.76928 7.89312 1.71441 8.03125 1.71441H19.0729C19.211 1.71441 19.3435 1.76928 19.4412 1.86696C19.5389 1.96463 19.5937 2.09711 19.5937 2.23524C19.5885 4.72483 19.599 8.3967 19.5937 10.8707Z" fill="#646464"/>
<path d="M12.4066 8.94792C12.1722 8.94792 12.0732 8.84896 11.8441 8.59896C11.6928 8.38716 11.4931 8.21453 11.2616 8.09543C11.0302 7.97633 10.7736 7.9142 10.5133 7.9142C10.253 7.9142 9.99651 7.97633 9.76506 8.09543C9.53361 8.21453 9.33393 8.38716 9.18262 8.59896C8.7972 9.07292 8.44824 9.07292 8.06283 8.59896C7.91152 8.38716 7.71184 8.21453 7.48038 8.09543C7.24893 7.97633 6.99239 7.9142 6.7321 7.9142C6.4718 7.9142 6.21526 7.97633 5.98381 8.09543C5.75236 8.21453 5.55268 8.38716 5.40137 8.59896C5.17741 8.84896 5.07324 8.94792 4.84407 8.94792C4.61491 8.94792 4.51074 8.84896 4.28158 8.59896C4.12847 8.38904 3.92895 8.21732 3.69859 8.09716C3.46822 7.97701 3.21321 7.91168 2.95345 7.90625C2.81532 7.90625 2.68284 7.96112 2.58517 8.0588C2.48749 8.15647 2.43262 8.28895 2.43262 8.42708C2.43262 8.56522 2.48749 8.69769 2.58517 8.79537C2.68284 8.89304 2.81532 8.94792 2.95345 8.94792C3.18783 8.94792 3.28678 9.05208 3.51074 9.29688C3.6606 9.51071 3.85979 9.68528 4.09143 9.8058C4.32308 9.92633 4.58035 9.98925 4.84147 9.98925C5.10259 9.98925 5.35987 9.92633 5.59151 9.8058C5.82315 9.68528 6.02234 9.51071 6.1722 9.29688C6.39616 9.05208 6.50033 8.94792 6.72949 8.94792C6.95866 8.94792 7.06283 9.05208 7.29199 9.29688C7.44454 9.50737 7.64393 9.67953 7.87442 9.79975C8.10491 9.91996 8.3602 9.98495 8.62012 9.98958C8.88061 9.98416 9.13637 9.91886 9.36758 9.79874C9.59879 9.67862 9.79925 9.5069 9.95345 9.29688C10.1774 9.05208 10.2816 8.94792 10.516 8.94792C10.7503 8.94792 10.8493 9.05208 11.0732 9.30208C11.2285 9.51058 11.4293 9.68088 11.6604 9.80002C11.8915 9.91916 12.1467 9.98399 12.4066 9.98958C12.5447 9.98958 12.6772 9.93471 12.7749 9.83703C12.8725 9.73936 12.9274 9.60688 12.9274 9.46875C12.9274 9.33062 12.8725 9.19814 12.7749 9.10046C12.6772 9.00279 12.5447 8.94792 12.4066 8.94792ZM12.4066 11.5521C12.1722 11.5521 12.0732 11.4531 11.8441 11.2031C11.6928 10.9913 11.4931 10.8187 11.2616 10.6996C11.0302 10.5805 10.7736 10.5184 10.5133 10.5184C10.253 10.5184 9.99651 10.5805 9.76506 10.6996C9.53361 10.8187 9.33393 10.9913 9.18262 11.2031C8.7972 11.6771 8.44824 11.6771 8.06283 11.2031C7.91152 10.9913 7.71184 10.8187 7.48038 10.6996C7.24893 10.5805 6.99239 10.5184 6.7321 10.5184C6.4718 10.5184 6.21526 10.5805 5.98381 10.6996C5.75236 10.8187 5.55268 10.9913 5.40137 11.2031C5.17741 11.4531 5.07324 11.5521 4.84407 11.5521C4.61491 11.5521 4.51074 11.4531 4.28158 11.2031C4.12847 10.9932 3.92895 10.8215 3.69859 10.7013C3.46822 10.5812 3.21321 10.5158 2.95345 10.5104C2.81532 10.5104 2.68284 10.5653 2.58517 10.663C2.48749 10.7606 2.43262 10.8931 2.43262 11.0312C2.43262 11.1694 2.48749 11.3019 2.58517 11.3995C2.68284 11.4972 2.81532 11.5521 2.95345 11.5521C3.18783 11.5521 3.28678 11.6562 3.51074 11.901C3.6606 12.1149 3.85979 12.2894 4.09143 12.41C4.32308 12.5305 4.58035 12.5934 4.84147 12.5934C5.10259 12.5934 5.35987 12.5305 5.59151 12.41C5.82315 12.2894 6.02234 12.1149 6.1722 11.901C6.39616 11.6562 6.50033 11.5521 6.72949 11.5521C6.95866 11.5521 7.06283 11.6562 7.29199 11.901C7.44454 12.1115 7.64393 12.2837 7.87442 12.4039C8.10491 12.5241 8.3602 12.5891 8.62012 12.5938C8.88061 12.5883 9.13637 12.523 9.36758 12.4029C9.59879 12.2828 9.79925 12.1111 9.95345 11.901C10.1774 11.6562 10.2816 11.5521 10.516 11.5521C10.7503 11.5521 10.8493 11.6562 11.0732 11.9062C11.2285 12.1147 11.4293 12.285 11.6604 12.4042C11.8915 12.5233 12.1467 12.5882 12.4066 12.5938C12.5447 12.5938 12.6772 12.5389 12.7749 12.4412C12.8725 12.3435 12.9274 12.2111 12.9274 12.0729C12.9274 11.9348 12.8725 11.8023 12.7749 11.7046C12.6772 11.607 12.5447 11.5521 12.4066 11.5521Z" fill="#646464"/>
</svg>