<svg width="14" height="16" viewBox="0 0 14 16" fill="none" xmlns="http://www.w3.org/2000/svg">
<path d="M7.56754 15.7902L7.56759 15.7903L7.56959 15.7885C7.57904 15.7801 7.5994 15.7628 7.62968 15.7372C7.93715 15.4773 9.26713 14.3529 10.5744 12.7595C12.0091 11.0109 13.425 8.68748 13.425 6.3125C13.425 4.65821 12.7678 3.07168 11.5981 1.90192C10.4283 0.732163 8.84179 0.075 7.1875 0.075C5.53321 0.075 3.94668 0.732163 2.77692 1.90192C1.60716 3.07168 0.95 4.65821 0.95 6.3125C0.95 8.68748 2.3659 11.0109 3.80056 12.7595C5.10787 14.3529 6.43785 15.4773 6.74532 15.7372C6.7756 15.7628 6.79596 15.7801 6.80541 15.7885L6.80536 15.7886L6.80746 15.7902C6.91522 15.8767 7.04905 15.9242 7.18721 15.925L7.18779 15.925C7.32595 15.9242 7.45978 15.8767 7.56754 15.7902ZM2.175 6.3125C2.175 4.9831 2.7031 3.70815 3.64313 2.76813C4.58315 1.8281 5.8581 1.3 7.1875 1.3C8.5169 1.3 9.79185 1.8281 10.7319 2.76813C11.6719 3.70815 12.2 4.9831 12.2 6.3125C12.2 8.06778 11.2421 9.85826 10.128 11.3464C9.03522 12.8063 7.79794 13.9677 7.1875 14.5089C6.57706 13.9677 5.33978 12.8063 4.24698 11.3464C3.13295 9.85826 2.175 8.06778 2.175 6.3125Z" fill="#646464" stroke="#646464" stroke-width="0.1"/>
<path d="M10.05 6.3125C10.05 5.74635 9.88212 5.19292 9.56758 4.72218C9.25305 4.25145 8.80599 3.88455 8.28293 3.6679C7.75988 3.45124 7.18433 3.39455 6.62906 3.505C6.07379 3.61545 5.56374 3.88808 5.16341 4.28841C4.76308 4.68874 4.49045 5.19879 4.38 5.75406C4.26955 6.30933 4.32624 6.88488 4.5429 7.40793C4.75955 7.93099 5.12645 8.37805 5.59718 8.69258C6.06792 9.00712 6.62135 9.175 7.1875 9.175C7.94668 9.175 8.67477 8.87342 9.21159 8.3366C9.74842 7.79977 10.05 7.07168 10.05 6.3125ZM5.55 6.3125C5.55 5.98863 5.64604 5.67204 5.82597 5.40276C6.0059 5.13347 6.26164 4.92359 6.56086 4.79965C6.86007 4.67571 7.18932 4.64328 7.50696 4.70647C7.82461 4.76965 8.11638 4.92561 8.34539 5.15461C8.5744 5.38362 8.73035 5.6754 8.79354 5.99304C8.85672 6.31069 8.82429 6.63993 8.70035 6.93915C8.57642 7.23836 8.36653 7.4941 8.09725 7.67403C7.82796 7.85396 7.51137 7.95 7.1875 7.95C6.75321 7.95 6.3367 7.77748 6.02961 7.47039C5.72252 7.1633 5.55 6.74679 5.55 6.3125Z" fill="#646464" stroke="#646464" stroke-width="0.1"/>
</svg>