<svg width="14" height="15" viewBox="0 0 14 15" fill="none" xmlns="http://www.w3.org/2000/svg">
<path d="M5.84375 8.03125H10.0938C10.3871 8.03125 10.625 7.79362 10.625 7.5C10.625 6.51708 10.0821 5.66687 9.28625 5.2075C9.46029 4.95213 9.5625 4.64416 9.5625 4.3125C9.5625 3.43365 8.8476 2.71875 7.96875 2.71875C7.0899 2.71875 6.375 3.43365 6.375 4.3125C6.375 4.64416 6.47721 4.95213 6.65125 5.2075C5.85544 5.66687 5.3125 6.51708 5.3125 7.5C5.3125 7.79362 5.55039 8.03125 5.84375 8.03125ZM7.4375 4.3125C7.4375 4.01936 7.67587 3.78125 7.96875 3.78125C8.26163 3.78125 8.5 4.01936 8.5 4.3125C8.5 4.60564 8.26163 4.84375 7.96875 4.84375C7.67587 4.84375 7.4375 4.60564 7.4375 4.3125ZM7.96875 5.90625C8.66134 5.90625 9.25225 6.35032 9.47144 6.96875H6.46606C6.68525 6.35032 7.27616 5.90625 7.96875 5.90625Z" fill="#646464"/>
<path d="M12.2188 0.59375H1.59375C0.714903 0.59375 0 1.30865 0 2.1875V12.8125C0 13.6913 0.714903 14.4062 1.59375 14.4062H12.2188C13.0976 14.4062 13.8125 13.6913 13.8125 12.8125V2.1875C13.8125 1.30865 13.0976 0.59375 12.2188 0.59375ZM1.0625 12.8125V2.1875C1.0625 1.89436 1.30087 1.65625 1.59375 1.65625H2.125V13.3438H1.59375C1.30087 13.3438 1.0625 13.1056 1.0625 12.8125ZM12.75 12.8125C12.75 13.1056 12.5116 13.3438 12.2188 13.3438H3.1875V1.65625H12.2188C12.5116 1.65625 12.75 1.89436 12.75 2.1875V12.8125Z" fill="#646464"/>
<path d="M4.51562 10.1562H11.4219C11.5686 10.1562 11.6875 10.0373 11.6875 9.89062V9.35938C11.6875 9.2127 11.5686 9.09375 11.4219 9.09375H4.51562C4.36895 9.09375 4.25 9.2127 4.25 9.35938V9.89062C4.25 10.0373 4.36895 10.1562 4.51562 10.1562ZM4.51562 12.2812H11.4219C11.5686 12.2812 11.6875 12.1623 11.6875 12.0156V11.4844C11.6875 11.3377 11.5686 11.2188 11.4219 11.2188H4.51562C4.36895 11.2188 4.25 11.3377 4.25 11.4844V12.0156C4.25 12.1623 4.36895 12.2812 4.51562 12.2812Z" fill="#646464"/>
</svg>