<svg width="15" height="16" viewBox="0 0 15 16" fill="none" xmlns="http://www.w3.org/2000/svg">
<path d="M10.6784 0.683696C10.6513 0.684583 10.6243 0.687425 10.5976 0.6922H0.563368C0.489206 0.692199 0.415775 0.706841 0.347286 0.735286C0.278796 0.76373 0.216597 0.805417 0.164256 0.857956C0.111915 0.910494 0.0704623 0.97285 0.0422759 1.04145C0.0140895 1.11004 -0.000275842 1.18353 4.01148e-06 1.25769V13.0671C4.01148e-06 14.3022 1.01406 15.3141 2.25133 15.3141H12.377C12.445 15.3193 12.5135 15.3121 12.579 15.2929C13.7206 15.1866 14.6283 14.2342 14.6283 13.0671V8.56653C14.628 8.49255 14.6132 8.41935 14.5846 8.35111C14.5561 8.28286 14.5143 8.22091 14.4618 8.1688C14.4093 8.11668 14.347 8.07542 14.2786 8.04737C14.2101 8.01931 14.1368 8.00502 14.0628 8.0053H11.2524V1.25769C11.2538 1.18191 11.24 1.10663 11.2116 1.03633C11.1833 0.966042 11.1411 0.90219 11.0875 0.848599C11.0339 0.795009 10.97 0.752782 10.8998 0.724447C10.8295 0.696113 10.7542 0.682252 10.6784 0.683696ZM1.12461 1.81893H10.1278V8.46024C10.1164 8.52494 10.1164 8.59113 10.1278 8.65582V13.0649C10.1278 13.4752 10.2468 13.8579 10.4424 14.1895H2.25133C2.10274 14.1918 1.95519 14.1643 1.81745 14.1085C1.67971 14.0526 1.55459 13.9697 1.4495 13.8646C1.34442 13.7596 1.26151 13.6344 1.2057 13.4967C1.14989 13.359 1.12231 13.2114 1.12461 13.0628V1.81893ZM2.7573 4.07026C2.61176 4.0827 2.47674 4.15118 2.38073 4.26126C2.28471 4.37134 2.2352 4.51441 2.24265 4.66029C2.2501 4.80617 2.31391 4.94345 2.42063 5.04319C2.52736 5.14292 2.66865 5.1973 2.8147 5.19486H8.43558C8.58499 5.19486 8.72828 5.1355 8.83393 5.02985C8.93959 4.9242 8.99894 4.78091 8.99894 4.63149C8.99894 4.48208 8.93959 4.33879 8.83393 4.23314C8.72828 4.12748 8.58499 4.06813 8.43558 4.06813H2.8147C2.79558 4.06715 2.77642 4.06715 2.7573 4.06813V4.07026ZM2.7573 6.31946C2.60788 6.32707 2.46761 6.39372 2.36734 6.50476C2.26708 6.61579 2.21502 6.76211 2.22263 6.91152C2.23024 7.06093 2.2969 7.2012 2.40793 7.30147C2.51897 7.40174 2.66528 7.4538 2.8147 7.44619H8.43558C8.58499 7.44619 8.72828 7.38683 8.83393 7.28118C8.93959 7.17553 8.99894 7.03224 8.99894 6.88282C8.99894 6.73341 8.93959 6.59012 8.83393 6.48446C8.72828 6.37881 8.58499 6.31946 8.43558 6.31946H2.8147C2.79558 6.31848 2.77642 6.31848 2.7573 6.31946ZM2.8147 8.56653C2.73795 8.56181 2.66104 8.57285 2.58872 8.59898C2.5164 8.6251 2.45019 8.66575 2.39417 8.71843C2.33815 8.77111 2.29351 8.83469 2.263 8.90528C2.23248 8.97586 2.21674 9.05194 2.21674 9.12884C2.21674 9.20573 2.23248 9.28181 2.263 9.35239C2.29351 9.42298 2.33815 9.48656 2.39417 9.53924C2.45019 9.59192 2.5164 9.63257 2.58872 9.65869C2.66104 9.68482 2.73795 9.69586 2.8147 9.69114H8.43558C8.58499 9.69114 8.72828 9.63178 8.83393 9.52613C8.93959 9.42048 8.99894 9.27719 8.99894 9.12777C8.99894 8.97836 8.93959 8.83507 8.83393 8.72941C8.72828 8.62376 8.58499 8.56441 8.43558 8.56441L2.8147 8.56653ZM11.2524 9.1299H13.5037V13.0671C13.5037 13.6963 13.0148 14.1895 12.3834 14.1917C12.3812 14.1917 12.3791 14.1917 12.377 14.1917C12.2284 14.194 12.0809 14.1664 11.9431 14.1106C11.8054 14.0548 11.6803 13.9719 11.5752 13.8668C11.4701 13.7617 11.3872 13.6366 11.3314 13.4988C11.2755 13.3611 11.248 13.2135 11.2503 13.0649L11.2524 9.1299ZM2.75942 10.8157C2.75871 10.8157 2.75801 10.8157 2.7573 10.8157C2.60788 10.8233 2.46761 10.89 2.36734 11.001C2.26708 11.1121 2.21502 11.2584 2.22263 11.4078C2.23024 11.5572 2.2969 11.6975 2.40793 11.7978C2.51897 11.898 2.66528 11.9501 2.8147 11.9425H8.43558C8.58499 11.9425 8.72828 11.8831 8.83393 11.7775C8.93959 11.6718 8.99894 11.5285 8.99894 11.3791C8.99894 11.2297 8.93959 11.0864 8.83393 10.9807C8.72828 10.8751 8.58499 10.8157 8.43558 10.8157H2.8147C2.79628 10.8148 2.77784 10.8148 2.75942 10.8157Z" fill="#646464"/>
</svg>