<svg width="18" height="15" viewBox="0 0 18 15" fill="none" xmlns="http://www.w3.org/2000/svg">
<path d="M17.6065 4.62132H16.5795V2.01709C16.5795 1.72366 16.3594 1.50358 16.066 1.50358H1.57764C1.28421 1.50358 1.06413 1.72366 1.06413 2.01709V4.62132H0.0371094V2.01709C0.0371094 1.17347 0.734016 0.476562 1.57764 0.476562H16.066C16.9096 0.476562 17.6065 1.17347 17.6065 2.01709V4.62132ZM15.0023 15.0016H2.56798C1.72436 15.0016 1.02745 14.3047 1.02745 13.461V4.658H2.05447V13.461C2.05447 13.7545 2.27455 13.9745 2.56798 13.9745H15.0023C15.2957 13.9745 15.5158 13.7545 15.5158 13.461V4.658H16.5428V13.461C16.5795 14.3047 15.8826 15.0016 15.0023 15.0016Z" fill="#646464"/>
<path d="M10.8571 7.73851H6.71231C6.41888 7.73851 6.1988 7.51843 6.1988 7.225C6.1988 6.93157 6.41888 6.71149 6.71231 6.71149H10.8571C11.1505 6.71149 11.3706 6.93157 11.3706 7.225C11.3706 7.51843 11.1505 7.73851 10.8571 7.73851ZM0 3.59375H17.6061V4.62077H0V3.59375Z" fill="#646464"/>
</svg>