<svg width="17" height="17" viewBox="0 0 17 17" fill="none" xmlns="http://www.w3.org/2000/svg">
<path d="M16.963 5.04321L14.9859 11.2704C14.838 11.7139 14.45 12.0095 13.988 12.0095H6.35652C5.91304 12.0095 5.48804 11.7323 5.34022 11.3258L2.42065 3.50951H0.73913C0.332609 3.50951 0 3.1769 0 2.77038C0 2.36386 0.332609 2.03125 0.73913 2.03125H2.93804C3.25217 2.03125 3.52935 2.23451 3.64022 2.53016L6.65217 10.5312H13.6739L15.2446 5.54212H6.5413C6.13478 5.54212 5.80217 5.20951 5.80217 4.80299C5.80217 4.39647 6.13478 4.06386 6.5413 4.06386H16.2609C16.5011 4.06386 16.7228 4.19321 16.8522 4.37799C17 4.56277 17.037 4.82147 16.963 5.04321ZM6.72609 12.9889C6.41196 12.9889 6.09783 13.1182 5.87609 13.3399C5.65435 13.5617 5.525 13.8758 5.525 14.1899C5.525 14.5041 5.65435 14.8182 5.87609 15.0399C6.09783 15.2617 6.41196 15.391 6.72609 15.391C7.04022 15.391 7.35435 15.2617 7.57609 15.0399C7.79783 14.8182 7.92717 14.5041 7.92717 14.1899C7.92717 13.8758 7.79783 13.5617 7.57609 13.3399C7.35435 13.1182 7.04022 12.9889 6.72609 12.9889ZM13.3598 12.9889C13.0457 12.9889 12.7315 13.1182 12.5098 13.3399C12.288 13.5617 12.1587 13.8758 12.1587 14.1899C12.1587 14.5041 12.288 14.8182 12.5098 15.0399C12.7315 15.2617 13.0457 15.391 13.3598 15.391C13.6739 15.391 13.988 15.2617 14.2098 15.0399C14.4315 14.8182 14.5609 14.5041 14.5609 14.1899C14.5609 13.8758 14.4315 13.5617 14.2098 13.3399C13.988 13.1182 13.6739 12.9889 13.3598 12.9889Z" fill="#64A463"/>
</svg>