<svg width="16" height="16" viewBox="0 0 16 16" fill="none" xmlns="http://www.w3.org/2000/svg">
<path d="M1.68716 0.121094C0.761593 0.121094 0 0.882676 0 1.80823V14.191C0 15.1166 0.761606 15.8782 1.68716 15.8782H14.071C14.9966 15.8782 15.7571 15.1166 15.7571 14.191V1.80823C15.7571 0.882676 14.9966 0.121094 14.071 0.121094H1.68716ZM1.68716 1.24665H7.31578V7.43692H1.1266V1.80823C1.1266 1.48677 1.36566 1.24665 1.68716 1.24665ZM8.44129 1.24665H14.071C14.3925 1.24665 14.6316 1.48677 14.6316 1.80823V7.43692H8.44129V1.24665ZM4.21295 2.6469C3.90173 2.64877 3.65207 2.90501 3.65569 3.21626V4.05934H2.81266C2.04551 4.04446 2.04551 5.2018 2.81266 5.18477H3.65569V6.02889C3.63869 6.79604 4.7982 6.79604 4.7812 6.02889V5.18477H5.62972C6.39688 5.19965 6.39688 4.04231 5.62972 4.05934H4.7812V3.21626C4.7849 2.90071 4.52847 2.64384 4.21295 2.6469ZM10.1284 4.05934C9.36129 4.04446 9.36129 5.2018 10.1284 5.18477H12.9444C13.7116 5.19965 13.7116 4.04231 12.9444 4.05934H10.1284ZM1.1266 8.56241H7.31578V14.7527H1.68716C1.36565 14.7527 1.1266 14.5125 1.1266 14.191V8.56241ZM8.44129 8.56241H14.6316V14.191C14.6316 14.5125 14.3925 14.7527 14.071 14.7527H8.44129V8.56241ZM10.0746 9.68791C9.92549 9.69545 9.78546 9.76185 9.68521 9.87248C9.58496 9.98311 9.53266 10.129 9.53979 10.2781C9.54692 10.4272 9.61289 10.5674 9.72324 10.6679C9.83358 10.7685 9.9793 10.8212 10.1284 10.8145H12.9444C13.0935 10.8141 13.2364 10.7546 13.3417 10.649C13.447 10.5434 13.5062 10.4004 13.5062 10.2512C13.5062 10.1021 13.447 9.95907 13.3417 9.85347C13.2364 9.74788 13.0935 9.68832 12.9444 9.68791H10.1284C10.1105 9.68705 10.0925 9.68705 10.0746 9.68791ZM3.21934 9.81357C2.71405 9.81464 2.46604 10.4294 2.82915 10.7808L3.42598 11.3776L2.82915 11.9733C2.27541 12.5022 3.09079 13.3221 3.62272 12.7713L4.22064 12.1723L4.81967 12.7713C5.35131 13.3458 6.19031 12.5011 5.61214 11.9733L5.01641 11.3776L5.61214 10.7807C5.98139 10.4238 5.71884 9.79933 5.20546 9.81351C5.05964 9.81776 4.92132 9.87922 4.81967 9.98381L4.22064 10.5816L3.62272 9.98368C3.51677 9.87484 3.37128 9.81338 3.21934 9.81338V9.81357ZM10.0746 11.9403C9.92784 11.9508 9.79103 12.0183 9.6934 12.1284C9.59577 12.2385 9.54505 12.3823 9.55208 12.5293C9.55911 12.6762 9.62334 12.8147 9.73104 12.9149C9.83873 13.0151 9.98136 13.0693 10.1284 13.0657H12.9444C13.0194 13.0675 13.094 13.0543 13.1639 13.0268C13.2337 12.9993 13.2973 12.9581 13.351 12.9057C13.4047 12.8533 13.4474 12.7907 13.4765 12.7215C13.5056 12.6523 13.5206 12.578 13.5206 12.503C13.5206 12.428 13.5056 12.3537 13.4765 12.2846C13.4474 12.2154 13.4047 12.1527 13.351 12.1003C13.2973 12.0479 13.2337 12.0067 13.1639 11.9792C13.094 11.9518 13.0194 11.9385 12.9444 11.9403H10.1284C10.1105 11.9394 10.0925 11.9394 10.0746 11.9403Z" fill="#646464"/>
</svg>