<svg width="26" height="26" viewBox="0 0 26 26" fill="none" xmlns="http://www.w3.org/2000/svg">
<path d="M25.2399 7.81094C25.2399 6.3774 24.0734 5.21094 22.6399 5.21094H3.35977C1.92623 5.21094 0.759766 6.3774 0.759766 7.81094V18.1926C0.759766 19.6262 1.92623 20.7926 3.35977 20.7926H22.6399C24.0734 20.7926 25.2399 19.6262 25.2399 18.1926V7.81094ZM24.1999 18.1926C24.1999 19.0529 23.5001 19.7526 22.6399 19.7526H3.35977C2.49953 19.7526 1.79977 19.0529 1.79977 18.1926V7.81094C1.79977 6.9507 2.49953 6.25094 3.35977 6.25094H22.6399C23.5001 6.25094 24.1999 6.9507 24.1999 7.81094V18.1926Z" fill="#646464"/>
<path d="M9.07331 7.47364C8.57879 7.47364 8.11121 7.58669 7.69016 7.7833C7.25841 7.5831 6.78786 7.47266 6.30925 7.47266C4.50043 7.47266 3.0293 8.94732 3.0293 10.7597C3.0293 12.5686 4.50043 14.0397 6.30925 14.0397C6.78749 14.0397 7.25695 13.9298 7.68761 13.7303C8.10928 13.9277 8.57775 14.0412 9.07331 14.0412C10.8836 14.0412 12.3568 12.568 12.3568 10.7577C12.3568 8.9468 10.8836 7.47364 9.07331 7.47364ZM4.0693 10.7597C4.0693 9.52062 5.07425 8.51266 6.30925 8.51266C6.42734 8.51266 6.54268 8.5242 6.65661 8.54172C6.11992 9.12657 5.78925 9.90324 5.78925 10.7577C5.78925 11.6108 6.11919 12.3866 6.65468 12.971C6.54143 12.9883 6.42666 12.9997 6.30925 12.9997C5.07425 12.9997 4.0693 11.9947 4.0693 10.7597ZM9.07331 13.0012C7.83576 13.0012 6.82925 11.9947 6.82925 10.7577C6.82925 9.52016 7.83576 8.51364 9.07331 8.51364C10.3103 8.51364 11.3168 9.52016 11.3168 10.7577C11.3168 11.9947 10.3103 13.0012 9.07331 13.0012ZM11.8368 16.4807H3.80321C3.51581 16.4807 3.28321 16.7133 3.28321 17.0007C3.28321 17.2881 3.51581 17.5207 3.80321 17.5207H11.8368C12.1242 17.5207 12.3568 17.2881 12.3568 17.0007C12.3568 16.7133 12.1242 16.4807 11.8368 16.4807ZM21.3964 13.9239H16.2832C15.9958 13.9239 15.7632 14.1565 15.7632 14.4439C15.7632 14.7313 15.9958 14.9639 16.2832 14.9639H21.3964C21.6838 14.9639 21.9164 14.7313 21.9164 14.4439C21.9164 14.1565 21.6838 13.9239 21.3964 13.9239ZM21.3964 16.4807H16.2832C15.9958 16.4807 15.7632 16.7133 15.7632 17.0007C15.7632 17.2881 15.9958 17.5207 16.2832 17.5207H21.3964C21.6838 17.5207 21.9164 17.2881 21.9164 17.0007C21.9164 16.7133 21.6838 16.4807 21.3964 16.4807Z" fill="#646464"/>
</svg>