<svg width="12" height="12" viewBox="0 0 12 12" fill="none" xmlns="http://www.w3.org/2000/svg">
<path d="M6.00033 0.166992C2.79199 0.166992 0.166992 2.79199 0.166992 6.00033C0.166992 9.20866 2.79199 11.8337 6.00033 11.8337C9.20866 11.8337 11.8337 9.20866 11.8337 6.00033C11.8337 2.79199 9.20866 0.166992 6.00033 0.166992ZM8.04199 7.16699C7.86699 7.45866 7.51699 7.51699 7.22533 7.40033L5.70866 6.52533C5.53366 6.40866 5.41699 6.23366 5.41699 6.00033V3.08366C5.41699 2.73366 5.65033 2.50033 6.00033 2.50033C6.35033 2.50033 6.58366 2.73366 6.58366 3.08366V5.65033L7.80866 6.35033C8.10033 6.52533 8.15866 6.87533 8.04199 7.16699Z" fill="#64A463"/>
</svg>