<svg width="11" height="11" viewBox="0 0 11 11" fill="none" xmlns="http://www.w3.org/2000/svg">
<path d="M10.7245 8.2061C10.7795 8.36192 10.679 8.62523 10.5002 8.7939L9.36614 9.8637C9.09795 10.1169 8.59416 10.2144 8.24194 10.0814L7.71791 9.88382C4.78281 8.77615 1.44657 5.6291 0.272566 2.86012L0.0629536 2.36595C-0.0778627 2.03368 0.0255101 1.55844 0.293706 1.30544L1.42776 0.235632C1.60656 0.0667958 1.88586 -0.0280163 2.05086 0.0240374C2.95882 0.309488 3.94167 1.23648 4.24427 2.093C4.29927 2.24866 4.19876 2.51214 4.01996 2.6808L3.37196 3.2921C3.19298 3.46076 3.13977 3.77106 3.25282 3.98434L3.42176 4.30326C3.93074 5.26354 5.17032 6.43289 6.18828 6.91304L6.52617 7.07241C6.75244 7.17905 7.08119 7.12869 7.25999 6.96002L7.90818 6.34873C8.08697 6.18006 8.3661 6.08525 8.53128 6.13713C9.43906 6.42258 10.4219 7.34975 10.7245 8.2061Z" fill="#64A463"/>
<path d="M4.93462 1.62476L4.97654 2.05826C4.988 2.17707 5.07418 2.2609 5.16913 2.24518C5.16913 2.24518 5.34488 2.23284 5.52189 2.2374C6.27202 2.25414 6.98649 2.54618 7.51625 3.04897C8.04924 3.54871 8.35864 4.22271 8.37799 4.93168C8.38462 5.16119 8.35757 5.38817 8.35506 5.39712C8.32425 5.51289 8.39913 5.62849 8.52239 5.65536L8.96795 5.75237C9.09121 5.77924 9.21591 5.70691 9.246 5.59114C9.26697 5.51154 9.30208 5.21156 9.29348 4.90887C9.26912 3.97816 8.86243 3.09325 8.16426 2.43768C7.46914 1.77889 6.53125 1.39525 5.54464 1.37244C5.33216 1.36703 5.1213 1.3797 5.1213 1.3797C5.00682 1.3961 4.92333 1.50595 4.93462 1.62476Z" fill="#64A463"/>
<path fill-rule="evenodd" clip-rule="evenodd" d="M4.80272 0.250477L4.84428 0.680766C4.85575 0.799577 4.95769 0.884756 5.07199 0.870729C5.07199 0.870729 5.28106 0.86025 5.48996 0.864982C6.63207 0.894051 7.71597 1.33583 8.51948 2.09991L8.5227 2.10295C8.52109 2.10143 8.52109 2.10143 8.51948 2.09991C8.52109 2.10143 8.52109 2.10143 8.52109 2.10143L8.5227 2.10295C9.33284 2.86094 9.80259 3.88495 9.83179 4.96084C9.84003 5.28263 9.80528 5.60458 9.78038 5.70734C9.75225 5.82378 9.82946 5.93989 9.95272 5.96676L10.3997 6.06411C10.523 6.09081 10.6457 6.01814 10.6738 5.90186C10.7157 5.7288 10.758 5.33434 10.7487 4.93954C10.7131 3.6404 10.1476 2.40412 9.1691 1.49014C9.1691 1.49014 9.1691 1.49014 9.16748 1.48861L9.1691 1.49014C8.2004 0.567025 6.8897 0.0336426 5.51432 0.00153147C5.26888 -0.00404572 5.02415 0.00727766 5.00946 0.00896772C4.88387 0.0235022 4.79125 0.131666 4.80272 0.250477ZM9.16748 1.48861C9.1691 1.49014 9.1691 1.49014 9.1691 1.49014L9.16748 1.48861Z" fill="#64A463"/>
</svg>