<svg width="20" height="24" viewBox="0 0 20 24" fill="none" xmlns="http://www.w3.org/2000/svg">
<path d="M19.8163 20.7163C19.8163 21.6218 19.0854 22.3526 18.18 22.3526C17.2781 22.3526 16.5436 21.6218 16.5436 20.7163C16.5436 20.4072 16.6309 20.1199 16.7799 19.8727L12.8854 16.1309C12.3654 16.5927 11.6999 16.8945 10.9654 16.96L10.8926 19.9272C11.7362 20.1127 12.3654 20.8618 12.3654 21.76C12.3654 22.8 11.5253 23.64 10.4853 23.64C9.44898 23.64 8.60534 22.8 8.60534 21.76C8.60534 20.8327 9.28167 20.0581 10.1653 19.909L10.2381 16.9454C9.46719 16.8509 8.77988 16.4945 8.26356 15.9672L4.69261 19.12C4.81265 19.3454 4.8817 19.6036 4.8817 19.88C4.8817 20.7672 4.16534 21.4836 3.28167 21.4836C2.39443 21.4836 1.67807 20.7672 1.67807 19.88C1.67807 18.9963 2.39443 18.28 3.28167 18.28C3.62719 18.28 3.94716 18.389 4.20894 18.5745L7.81265 15.3963C7.62719 15.1017 7.48534 14.7745 7.39807 14.4254L5.09985 14.7563C5.03443 15.6072 4.32534 16.2763 3.45265 16.2763C2.53992 16.2763 1.80174 15.5381 1.80174 14.6254C1.80174 13.7127 2.53992 12.9709 3.45265 12.9709C4.16174 12.9709 4.7617 13.4145 4.9981 14.0363L7.30348 13.7054C7.29985 13.6763 7.29985 13.6436 7.29985 13.6145C7.29985 13.1272 7.4053 12.6654 7.59443 12.2472L3.29268 9.20722C2.96538 9.52359 2.5181 9.71632 2.02716 9.71632C1.00898 9.71632 0.183594 8.89086 0.183594 7.86904C0.183594 6.85086 1.00898 6.02541 2.02716 6.02541C3.04534 6.02541 3.87083 6.85086 3.87083 7.86904C3.87083 8.1345 3.81632 8.38904 3.7145 8.6145L7.96174 11.6145C8.29272 11.1636 8.73625 10.8 9.25265 10.5636L8.44901 8.67268C8.33625 8.69813 8.21625 8.70904 8.09628 8.70904C7.09628 8.70904 6.28538 7.89813 6.28538 6.89813C6.28538 5.89813 7.09628 5.08722 8.09628 5.08722C9.09628 5.08722 9.90719 5.89813 9.90719 6.89813C9.90719 7.51995 9.59443 8.06541 9.11803 8.39268L9.94712 10.3309C10.1762 10.28 10.4162 10.2545 10.6598 10.2545C10.9036 10.2545 11.1435 10.28 11.3726 10.3309L13.5472 3.78173C12.9981 3.46533 12.6272 2.87264 12.6272 2.19628C12.6272 1.18537 13.4454 0.367188 14.4563 0.367188C15.4635 0.367188 16.2817 1.18537 16.2817 2.19628C16.2817 3.20355 15.4635 4.02173 14.4563 4.02173C14.3836 4.02173 14.3108 4.0181 14.2381 4.00719L12.0636 10.5636C12.3436 10.6908 12.6054 10.8581 12.8344 11.0581L16.0927 8.16355C15.8963 7.88355 15.7799 7.54173 15.7799 7.17446C15.7799 6.21446 16.5581 5.43264 17.5181 5.43264C18.4817 5.43264 19.2599 6.21446 19.2599 7.17446C19.2599 8.13446 18.4817 8.91628 17.5181 8.91628C17.1908 8.91628 16.8854 8.82537 16.6236 8.66537L13.3363 11.5854C13.5617 11.8836 13.74 12.2181 13.8562 12.5781L15.529 12.3963C15.609 11.4763 16.3872 10.7526 17.329 10.7526C18.329 10.7526 19.1363 11.5636 19.1363 12.5636C19.1363 13.5636 18.329 14.3745 17.329 14.3745C16.5217 14.3745 15.8417 13.8472 15.6054 13.1199L14.0018 13.2945C14.0162 13.3999 14.02 13.5054 14.02 13.6145C14.02 14.3526 13.7799 15.0363 13.3726 15.5926L17.2817 19.349C17.5399 19.1781 17.849 19.0799 18.1799 19.0799C19.0854 19.0799 19.8163 19.8145 19.8163 20.7163Z" fill="#288B61"/>
</svg>