<svg width="20" height="20" viewBox="0 0 20 20" fill="none" xmlns="http://www.w3.org/2000/svg">
<path d="M9.88172 9.09225C9.37072 13.2073 6.76072 13.9393 6.76072 16.8003C6.76072 18.5663 8.24372 19.9993 9.99972 19.9993C11.7557 19.9993 13.2377 18.5653 13.2377 16.8003C13.2377 13.9393 10.6277 13.2073 10.1167 9.09225C10.1007 8.96925 9.89772 8.96925 9.88172 9.09225ZM3.88272 0.09225C3.37172 4.20725 0.761719 4.93825 0.761719 7.80025C0.761719 9.56525 2.24372 10.9993 3.99972 10.9993C5.75572 10.9993 7.23772 9.56525 7.23772 7.80025C7.23772 4.93925 4.62772 4.20725 4.11672 0.09225C4.10172 -0.03075 3.89772 -0.03075 3.88272 0.09225ZM15.8827 0.09225C15.3717 4.20725 12.7617 4.93925 12.7617 7.80025C12.7617 9.56525 14.2437 10.9993 15.9997 10.9993C17.7557 10.9993 19.2377 9.56525 19.2377 7.80025C19.2377 4.93925 16.6277 4.20725 16.1167 0.09225C16.1007 -0.03075 15.8977 -0.03075 15.8827 0.09225Z" fill="#288B61"/>
</svg>