<svg width="21" height="21" viewBox="0 0 21 21" fill="none" xmlns="http://www.w3.org/2000/svg">
<path d="M6.54883 8.17969H2.61133V4.24219" stroke="#288B61" stroke-width="3" stroke-linecap="round" stroke-linejoin="round"/>
<path d="M15.6044 5.39557C14.9341 4.72525 14.1383 4.19352 13.2625 3.83074C12.3867 3.46797 11.448 3.28125 10.5 3.28125C9.55201 3.28125 8.61331 3.46797 7.73749 3.83074C6.86167 4.19352 6.06588 4.72525 5.39556 5.39557L2.61133 8.17981" stroke="#288B61" stroke-width="3" stroke-linecap="round" stroke-linejoin="round"/>
<path d="M14.4512 12.8203H18.3887V16.7578" stroke="#288B61" stroke-width="3" stroke-linecap="round" stroke-linejoin="round"/>
<path d="M5.39648 15.6045C6.06681 16.2749 6.8626 16.8066 7.73842 17.1694C8.61423 17.5322 9.55293 17.7189 10.5009 17.7189C11.4489 17.7189 12.3876 17.5322 13.2634 17.1694C14.1392 16.8066 14.935 16.2749 15.6053 15.6045L18.3896 12.8203" stroke="#288B61" stroke-width="3" stroke-linecap="round" stroke-linejoin="round"/>
</svg>
