<svg width="21" height="21" viewBox="0 0 21 21" fill="none" xmlns="http://www.w3.org/2000/svg">
<path d="M6.61169 0.914951C6.53492 0.919553 6.46039 0.942534 6.39436 0.981959L4.02192 2.42172C3.95148 2.46469 3.8933 2.5251 3.85301 2.59711C3.81273 2.66913 3.79168 2.75031 3.79192 2.83283V5.70873C3.792 5.79094 3.81318 5.87175 3.85346 5.94342C3.89373 6.01509 3.95174 6.07521 4.02192 6.11802L6.41972 7.55416C6.49458 7.59938 6.58037 7.62327 6.66783 7.62327C6.75528 7.62327 6.84108 7.59938 6.91594 7.55416L9.28476 6.1144C9.35458 6.07267 9.41265 6.01389 9.45351 5.94356C9.49438 5.87323 9.5167 5.79367 9.51838 5.71235L9.54011 2.83645C9.54073 2.75249 9.51932 2.66984 9.47801 2.59675C9.43669 2.52366 9.37693 2.46268 9.30468 2.41991L6.88696 0.981959C6.80404 0.932431 6.7081 0.909077 6.61169 0.914951ZM13.7978 0.914951C13.7211 0.919553 13.6465 0.942534 13.5805 0.981959L11.2081 2.42172C11.1376 2.46469 11.0794 2.5251 11.0392 2.59711C10.9989 2.66913 10.9778 2.75031 10.9781 2.83283V5.70873C10.9781 5.79094 10.9993 5.87175 11.0396 5.94342C11.0799 6.01509 11.1379 6.07521 11.2081 6.11802L13.6059 7.55416C13.6807 7.59938 13.7665 7.62327 13.854 7.62327C13.9414 7.62327 14.0272 7.59938 14.1021 7.55416L16.4727 6.1144C16.5422 6.07245 16.5999 6.01357 16.6404 5.94326C16.681 5.87295 16.703 5.7935 16.7045 5.71235L16.7263 2.83645C16.7271 2.75267 16.7059 2.67013 16.6649 2.59706C16.6239 2.52398 16.5645 2.46291 16.4926 2.41991L14.0731 0.981959C13.9902 0.932431 13.8942 0.909077 13.7978 0.914951ZM3.73578 7.14487C3.65871 7.15058 3.58416 7.17481 3.51846 7.2155L1.14602 8.64983C1.07557 8.6928 1.0174 8.75321 0.977108 8.82522C0.93682 8.89724 0.915779 8.97842 0.916018 9.06094V11.9368C0.916467 12.0194 0.938205 12.1004 0.97913 12.1721C1.02006 12.2438 1.07878 12.3038 1.14964 12.3461L3.54381 13.7823C3.61867 13.8275 3.70447 13.8514 3.79192 13.8514C3.87938 13.8514 3.96517 13.8275 4.04003 13.7823L6.40885 12.3425C6.47901 12.301 6.53744 12.2423 6.57863 12.172C6.61982 12.1016 6.64242 12.022 6.64429 11.9405L6.6624 9.06456C6.66339 8.98095 6.64252 8.89854 6.60186 8.82547C6.5612 8.75241 6.50216 8.69124 6.43058 8.64802L4.01106 7.21007C3.92813 7.16054 3.83219 7.13719 3.73578 7.14306V7.14487ZM10.4456 7.14487C10.3673 7.15 10.2914 7.17425 10.2247 7.2155L7.85586 8.64983C7.7844 8.69213 7.72515 8.75225 7.68388 8.82431C7.64262 8.89637 7.62075 8.9779 7.62043 9.06094V11.9368C7.62106 12.0196 7.64308 12.1007 7.68433 12.1724C7.72558 12.2442 7.78467 12.304 7.85586 12.3461L10.2537 13.7823C10.3281 13.8268 10.4132 13.8503 10.5 13.8503C10.5867 13.8503 10.6718 13.8268 10.7463 13.7823L13.1187 12.3425C13.1878 12.3003 13.2452 12.2414 13.2854 12.1711C13.3256 12.1008 13.3474 12.0214 13.3487 11.9405L13.374 9.06456C13.3749 8.98078 13.3537 8.89824 13.3127 8.82517C13.2717 8.75209 13.2123 8.69102 13.1404 8.64802L10.7209 7.21007C10.638 7.16054 10.542 7.13719 10.4456 7.14306V7.14487ZM17.1518 7.14487C17.0748 7.15058 17.0002 7.17481 16.9345 7.2155L14.5621 8.64983C14.4916 8.6928 14.4335 8.75321 14.3932 8.82522C14.3529 8.89724 14.3318 8.97842 14.3321 9.06094V11.9368C14.3325 12.0194 14.3543 12.1004 14.3952 12.1721C14.4361 12.2438 14.4948 12.3038 14.5657 12.3461L16.9599 13.7823C17.0347 13.8275 17.1205 13.8514 17.208 13.8514C17.2954 13.8514 17.3812 13.8275 17.4561 13.7823L19.8285 12.3425C19.8977 12.3003 19.955 12.2414 19.9953 12.1711C20.0355 12.1008 20.0572 12.0214 20.0585 11.9405L20.0839 9.06456C20.0843 8.98042 20.0626 8.89766 20.021 8.82455C19.9794 8.75144 19.9192 8.69056 19.8466 8.64802L17.4271 7.21007C17.3442 7.16054 17.2483 7.13719 17.1518 7.14306V7.14487ZM6.66058 13.3694C6.6443 13.3685 6.62798 13.3685 6.61169 13.3694C6.53446 13.3756 6.4599 13.4005 6.39436 13.4418L4.02192 14.8779C3.95148 14.9209 3.8933 14.9813 3.85301 15.0533C3.81273 15.1253 3.79168 15.2065 3.79192 15.289V18.1631C3.79168 18.2457 3.81273 18.3268 3.85301 18.3989C3.8933 18.4709 3.95148 18.5313 4.02192 18.5742L6.41972 20.0086C6.49458 20.0538 6.58037 20.0777 6.66783 20.0777C6.75528 20.0777 6.84108 20.0538 6.91594 20.0086L9.28476 18.5742C9.35535 18.532 9.41392 18.4724 9.45483 18.401C9.49574 18.3297 9.51762 18.249 9.51838 18.1668L9.54011 15.2909C9.54073 15.2069 9.51932 15.1242 9.47801 15.0512C9.43669 14.9781 9.37693 14.9171 9.30468 14.8743L6.88696 13.4382C6.81843 13.3967 6.7406 13.373 6.66058 13.3694ZM13.8467 13.3694C13.8304 13.3685 13.8141 13.3685 13.7978 13.3694C13.7206 13.3756 13.646 13.4005 13.5805 13.4418L11.2081 14.8779C11.1376 14.9209 11.0794 14.9813 11.0392 15.0533C10.9989 15.1253 10.9778 15.2065 10.9781 15.289V18.1631C10.9778 18.2457 10.9989 18.3268 11.0392 18.3989C11.0794 18.4709 11.1376 18.5313 11.2081 18.5742L13.6059 20.0086C13.6807 20.0538 13.7665 20.0777 13.854 20.0777C13.9414 20.0777 14.0272 20.0538 14.1021 20.0086L16.4727 18.5742C16.543 18.5318 16.6012 18.4721 16.6418 18.4007C16.6823 18.3294 16.704 18.2488 16.7045 18.1668L16.7263 15.2909C16.7271 15.2071 16.7059 15.1245 16.6649 15.0515C16.6239 14.9784 16.5645 14.9173 16.4926 14.8743L14.0731 13.4382C14.0046 13.3967 13.9267 13.373 13.8467 13.3694Z" fill="#288B61"/>
</svg>