<svg width="14" height="22" viewBox="0 0 14 22" fill="none" xmlns="http://www.w3.org/2000/svg">
<path d="M12.1578 4.80018C12.5902 4.71284 14 4.35219 14 3.38089C14 2.72583 13.5498 1.52817 10.5348 0.885126C9.95494 0.763411 9.36259 0.711849 8.77047 0.731552C7.6637 0.740247 6.56051 0.858368 5.47699 1.08419H5.47445L4.06862 1.43574C3.98993 1.45545 3.92008 1.5009 3.87016 1.56485C3.82025 1.62881 3.79314 1.70761 3.79314 1.78874V2.84411C3.79314 2.92524 3.82025 3.00404 3.87016 3.06799C3.92008 3.13195 3.98993 3.1774 4.06862 3.19711C4.71677 3.36852 5.43332 3.53337 6.18118 3.68804C5.83182 5.00543 5.40567 6.04333 5.01664 6.49823C4.93871 6.59261 4.89477 6.71045 4.89187 6.83281C4.88896 6.95517 4.92727 7.07496 5.00062 7.17293C5.07177 7.27194 5.17442 7.34386 5.29177 7.37691C5.40912 7.40997 5.53422 7.40221 5.64658 7.35489C6.14494 7.11884 6.59054 6.78464 6.95669 6.37231V8.11549C6.95669 8.212 6.99503 8.30457 7.06328 8.37282C7.13153 8.44107 7.2241 8.47941 7.32061 8.47941H7.42397C7.28852 8.85214 7.07948 9.19382 6.80926 9.4841C6.53905 9.77438 6.2132 10.0073 5.8511 10.1691C5.22056 10.4222 4.5724 10.629 3.91178 10.7878C3.67865 10.8431 3.47103 10.9755 3.3225 11.1636C3.17397 11.3516 3.09322 11.5842 3.09332 11.8238V20.769C3.09361 21.0517 3.20604 21.3227 3.40595 21.5226C3.60585 21.7225 3.8769 21.835 4.1596 21.8353H11.8893C12.1725 21.8355 12.4442 21.7233 12.6447 21.5234C12.8453 21.3235 12.9584 21.0522 12.9592 20.769V10.783C12.9591 10.6978 12.9481 10.6129 12.9264 10.5305L12.4344 8.47941H12.5953C12.6918 8.47941 12.7844 8.44107 12.8526 8.37282C12.9208 8.30457 12.9592 8.212 12.9592 8.11549V5.65539C12.9592 5.55887 12.9208 5.46631 12.8526 5.39806C12.7844 5.32981 12.6918 5.29147 12.5953 5.29147H11.7051C11.8176 5.05856 11.973 4.8373 12.1578 4.80018ZM4.52243 2.07442L5.20042 1.90337V2.72947L4.52243 2.55989V2.07442ZM6.04107 6.23802C6.39337 5.49619 6.67202 4.72158 6.87299 3.92531C7.14433 4.03862 7.40234 4.18153 7.64232 4.35146C7.18983 5.04501 6.65185 5.67884 6.04107 6.23802ZM8.1882 4.8373C8.31037 4.97762 8.41825 5.12976 8.51027 5.29147H7.86067C7.96766 5.14711 8.07684 4.99572 8.1882 4.8373ZM10.823 13.829V18.9239C10.823 19.0204 10.7846 19.113 10.7164 19.1812C10.6481 19.2495 10.5556 19.2878 10.4591 19.2878H5.58981C5.49329 19.2878 5.40073 19.2495 5.33248 19.1812C5.26423 19.113 5.22589 19.0204 5.22589 18.9239V13.829C5.22589 13.7325 5.26423 13.6399 5.33248 13.5717C5.40073 13.5035 5.49329 13.4651 5.58981 13.4651H10.4591C10.5556 13.4651 10.6481 13.5035 10.7164 13.5717C10.7846 13.6399 10.823 13.7325 10.823 13.829ZM12.2313 7.75157H7.68599V6.01931H12.2313V7.75157ZM2.54744 1.81967H0.36392C0.267402 1.81967 0.174838 1.85801 0.10659 1.92626C0.0383415 1.99451 0 2.08707 0 2.18359C0 2.28011 0.0383415 2.37267 0.10659 2.44092C0.174838 2.50917 0.267402 2.54751 0.36392 2.54751H2.54744C2.64396 2.54751 2.73652 2.50917 2.80477 2.44092C2.87302 2.37267 2.91136 2.28011 2.91136 2.18359C2.91136 2.08707 2.87302 1.99451 2.80477 1.92626C2.73652 1.85801 2.64396 1.81967 2.54744 1.81967ZM2.47466 3.28263L0.655056 3.64655C0.566612 3.66451 0.487997 3.71469 0.43447 3.78735C0.380944 3.86002 0.356327 3.94997 0.365397 4.03977C0.374467 4.12956 0.416577 4.21278 0.483553 4.27327C0.550528 4.33376 0.637591 4.3672 0.72784 4.36711C0.752291 4.36727 0.776689 4.36483 0.800624 4.35983L2.62022 3.99591C2.66842 3.98799 2.71453 3.97044 2.7558 3.94432C2.79707 3.9182 2.83267 3.88403 2.86046 3.84386C2.88824 3.80369 2.90766 3.75834 2.91755 3.71051C2.92745 3.66268 2.92761 3.61334 2.91803 3.56545C2.90845 3.51755 2.88932 3.47207 2.8618 3.43172C2.83427 3.39137 2.7989 3.35698 2.7578 3.33059C2.7167 3.3042 2.67071 3.28635 2.62256 3.27811C2.57442 3.26987 2.52511 3.27141 2.47757 3.28263H2.47466ZM0.655056 0.720634L2.47466 1.08455C2.49859 1.08955 2.52299 1.09199 2.54744 1.09183C2.63769 1.09192 2.72475 1.05848 2.79173 0.997987C2.8587 0.937497 2.90081 0.854278 2.90988 0.764486C2.91895 0.674695 2.89433 0.584736 2.84081 0.512074C2.78728 0.439412 2.70867 0.38923 2.62022 0.371271L0.800624 0.00735117C0.753789 -0.00220696 0.70553 -0.00244668 0.658603 0.00664568C0.611675 0.015738 0.566998 0.0339844 0.527122 0.060343C0.446589 0.113577 0.390502 0.196621 0.371198 0.291209C0.351895 0.385796 0.370957 0.484177 0.42419 0.56471C0.477424 0.645243 0.560469 0.701331 0.655056 0.720634Z" fill="#288B61"/>
<path d="M7.27731 18.1939H8.73299V17.1021H9.82475V15.6464H8.73299V14.5547H7.27731V15.6464H6.18555V17.1021H7.27731V18.1939Z" fill="#288B61"/>
</svg>