<svg width="19" height="23" viewBox="0 0 19 23" fill="none" xmlns="http://www.w3.org/2000/svg">
<path fill-rule="evenodd" clip-rule="evenodd" d="M10.4071 0.359375C10.4071 0.359375 7.17269 2.51567 7.17269 5.75004C7.17385 6.35697 7.39514 6.94285 7.79551 7.39899C8.19588 7.85514 8.74813 8.15053 9.34978 8.2304C9.21825 10.6993 9.35625 12.4588 9.53234 13.9387C8.86605 14.0053 8.19324 13.955 7.54428 13.7899C7.7454 13.2356 7.74508 12.6282 7.54337 12.074C7.34166 11.5199 6.95142 11.0544 6.441 10.759C4.26247 9.5012 2.45338 11.1974 0.875 9.61903C0.875 9.61903 1.12441 13.4996 3.92538 15.1168C5.03872 15.7593 6.43022 15.4445 7.18347 14.4426C7.90362 14.6461 8.65364 14.7229 9.40009 14.6697C9.46182 14.7263 9.54139 14.7596 9.62506 14.7638H9.63081C9.76953 15.8232 9.90178 16.79 9.92694 17.7948C9.56816 17.4831 9.11913 17.2942 8.64541 17.2557C8.36389 17.2354 8.08108 17.2693 7.81238 17.3557C6.88734 17.6511 6.29006 18.5093 6.27425 19.4444C6.00628 19.3891 5.72927 19.3954 5.46408 19.4628C5.1989 19.5302 4.95245 19.6568 4.74331 19.8332C4.46296 20.0712 4.26237 20.3894 4.1686 20.7449C4.07484 21.1005 4.09242 21.4763 4.21897 21.8215C4.34552 22.1668 4.57495 22.4649 4.87629 22.6757C5.17763 22.8864 5.53638 22.9996 5.90409 23C5.92566 23 5.94506 23 5.96519 22.9928C5.98375 22.9988 6.00324 23.0012 6.02269 23H13.313C13.3367 23 13.3611 23 13.3848 22.9928C13.4071 22.9988 13.4301 23.0012 13.4531 23C13.8216 22.9997 14.1811 22.8861 14.4829 22.6745C14.7846 22.463 15.0141 22.1638 15.1401 21.8175C15.2661 21.4712 15.2825 21.0946 15.1873 20.7386C15.092 20.3826 14.8896 20.0645 14.6074 19.8274C14.3248 19.5904 13.9759 19.4464 13.6084 19.4149C13.4263 19.3976 13.2426 19.4094 13.0643 19.4501C13.0208 19.2061 12.9272 18.9738 12.7895 18.7677C12.6519 18.5617 12.473 18.3862 12.2643 18.2526C12.0556 18.119 11.8214 18.0301 11.5766 17.9913C11.3318 17.9526 11.0817 17.965 10.8419 18.0277C10.7751 18.0449 10.7104 18.0708 10.6457 18.0967C10.6457 16.9482 10.5098 15.8981 10.3603 14.7646C10.8515 14.7391 11.3381 14.6575 11.8108 14.5217C12.1772 15.0145 12.7118 15.3558 13.3131 15.4807C13.9145 15.6056 14.5407 15.5056 15.0732 15.1994C17.8742 13.5822 18.125 9.70387 18.125 9.70387C16.5466 11.2822 14.7361 9.58455 12.5576 10.8424C12.0473 11.1377 11.6572 11.603 11.4555 12.157C11.2538 12.711 11.2534 13.3183 11.4543 13.8726C11.0686 13.9725 10.6735 14.032 10.2755 14.0501C10.0229 12.1199 9.9536 10.1701 10.0685 8.2268C10.6616 8.13744 11.203 7.83851 11.5947 7.38425C11.9863 6.92999 12.2022 6.35051 12.2032 5.75075C12.2032 3.23512 9.82919 2.51633 10.4063 0.360077L10.4071 0.359375Z" fill="#288B61"/>
</svg>