<svg width="20" height="21" viewBox="0 0 20 21" fill="none" xmlns="http://www.w3.org/2000/svg">
<path d="M17.9615 11.2401C18.0395 10.8531 18.0929 10.4616 18.1214 10.0679C18.6736 9.82085 19.3662 9.48179 19.1822 8.8521C19.1289 8.71458 19.0405 8.59344 18.9257 8.50079C18.811 8.40814 18.6739 8.34723 18.5283 8.32413C18.3636 8.28538 18.194 8.25632 18.0439 8.2321C17.9857 7.86376 17.9032 7.49968 17.7969 7.14225C17.7236 6.91017 17.6379 6.68219 17.5401 6.45929L17.3948 6.13475C17.3948 6.13475 17.3948 6.096 17.3561 6.05725C17.5498 5.91194 17.7484 5.76663 17.9373 5.61647C18.1445 5.50313 18.3032 5.318 18.3834 5.09589C18.4637 4.87378 18.4601 4.63 18.3733 4.41038C18.2646 4.24243 18.1067 4.11222 17.9211 4.03764C17.7355 3.96305 17.5313 3.94774 17.3367 3.99382C16.8959 4.04225 16.4551 4.11491 16.0144 4.18272C15.5149 3.67642 14.9535 3.23536 14.3433 2.87007C14.2263 2.38924 14.0641 1.92054 13.8589 1.47022C13.8218 1.40604 13.7705 1.35123 13.7089 1.30999C13.6474 1.26876 13.5771 1.24221 13.5037 1.23238C13.4302 1.22256 13.3555 1.22972 13.2852 1.25332C13.215 1.27692 13.1511 1.31632 13.0984 1.3685L12.4058 2.066C11.542 1.83887 10.6435 1.77481 9.75624 1.8771C9.65772 1.8913 9.5653 1.93331 9.48983 1.99819L9.00546 1.96913C8.57921 1.32007 8.13842 0.65163 7.23264 0.835692C6.46249 0.995536 5.99749 1.80444 5.75046 2.59397C4.71046 3.03311 3.76853 3.67533 2.97983 4.48304C2.45671 4.41522 1.93358 4.34257 1.40561 4.29413C0.964832 4.25054 0.490144 4.33772 0.378738 4.83663C0.267332 5.33554 0.708113 5.94585 0.863113 6.36241L1.26514 7.27788C0.7665 8.78628 0.68615 10.4017 1.03264 11.9521C0.872801 12.1265 0.717801 12.3057 0.548269 12.4849C0.412322 12.613 0.324264 12.7837 0.298713 12.9687C0.273162 13.1538 0.311654 13.342 0.4078 13.5021C0.53656 13.6397 0.692766 13.7487 0.866314 13.8221C1.03986 13.8956 1.22689 13.9318 1.4153 13.9284L1.77858 13.9623C2.49043 15.2252 3.50596 16.2906 4.73327 17.0623V17.193C4.68619 17.3895 4.69989 17.5957 4.77254 17.7843C4.8452 17.9728 4.97338 18.1349 5.14014 18.249C5.31297 18.3338 5.50448 18.3734 5.69678 18.3641C5.88907 18.3548 6.07586 18.2968 6.23968 18.1957C6.35463 18.1272 6.45905 18.0423 6.54967 17.9438C7.21657 18.1739 7.90988 18.3187 8.61311 18.3749C8.78264 19.2177 9.12171 20.1865 9.88702 20.1865C10.4101 20.1865 10.725 19.7021 10.9865 19.3388C11.272 18.9258 11.5231 18.49 11.7373 18.0359C12.3391 17.8565 12.9215 17.618 13.4762 17.3238C13.7108 17.5161 13.9842 17.6555 14.2776 17.7324C14.5711 17.8093 14.8776 17.8219 15.1764 17.7694C15.3644 17.706 15.5216 17.5741 15.6168 17.3999C15.7119 17.2258 15.738 17.0222 15.6898 16.8298C15.6273 16.5126 15.5481 16.1989 15.4525 15.8901C15.9913 15.3665 16.4602 14.7755 16.8475 14.1318C17.2553 14.3333 17.6972 14.4565 18.1505 14.4951C18.3447 14.4911 18.5338 14.4321 18.6959 14.3249C18.8579 14.2177 18.9862 14.0668 19.0659 13.8896C19.25 13.4052 18.9448 12.8627 18.722 12.4365C18.5007 12.0181 18.2464 11.6181 17.9615 11.2401ZM4.50077 10.2713C4.3936 10.3085 4.29836 10.3737 4.22495 10.4601C4.15154 10.5466 4.10264 10.6512 4.08335 10.7629C4.06407 10.8747 4.07509 10.9896 4.11528 11.0957C4.15547 11.2017 4.22335 11.2951 4.31186 11.366C4.76718 11.7923 4.07936 12.4752 3.62889 12.049C3.43685 11.8727 3.29082 11.6522 3.20353 11.4066C3.11623 11.161 3.09032 10.8978 3.12805 10.6399C3.16578 10.382 3.26601 10.1372 3.42 9.92693C3.57399 9.71663 3.77707 9.54718 4.01155 9.43335C4.57343 9.18147 5.06749 10.0146 4.50077 10.2858V10.2713ZM7.56202 8.87147C7.66277 8.72487 7.80552 8.61219 7.9715 8.54821C8.13749 8.48424 8.31894 8.47198 8.49202 8.51304C8.61514 8.54803 8.71941 8.63034 8.78204 8.74198C8.84466 8.85361 8.86055 8.9855 8.82624 9.10882C8.80406 9.19167 8.75844 9.26636 8.69486 9.32393C8.63128 9.38149 8.55244 9.41949 8.4678 9.43335C8.49821 9.54597 8.48695 9.66579 8.43609 9.77077C8.38524 9.87576 8.2982 9.95887 8.19098 10.0048C8.08375 10.0508 7.96354 10.0565 7.85245 10.0209C7.74135 9.98533 7.64682 9.91085 7.58624 9.81116C7.48933 9.67465 7.43527 9.51237 7.43096 9.34501C7.42664 9.17765 7.47227 9.0128 7.56202 8.87147ZM5.89577 7.62179C5.84077 7.65401 5.77996 7.67507 5.71681 7.68374C5.65366 7.69242 5.58942 7.68855 5.52777 7.67235C5.46613 7.65615 5.40828 7.62794 5.35756 7.58934C5.30683 7.55074 5.26422 7.50251 5.23218 7.44741C5.12653 7.24083 5.08096 7.00875 5.10065 6.77756C5.12035 6.54636 5.20451 6.32533 5.34358 6.1396C5.49292 5.9591 5.69122 5.82558 5.91464 5.75512C6.13806 5.68466 6.37709 5.68024 6.60296 5.74241C7.20843 5.88772 6.95171 6.82257 6.34624 6.67241C6.17671 6.63366 5.97327 6.77897 6.06046 6.97272C6.12101 7.08245 6.13667 7.21138 6.10415 7.33242C6.07163 7.45345 5.99347 7.55717 5.88608 7.62179H5.89577ZM7.15514 13.6474C7.01565 13.653 6.87673 13.6265 6.74912 13.5699C6.62151 13.5132 6.50864 13.428 6.41922 13.3208C6.3298 13.2136 6.26622 13.0872 6.23341 12.9515C6.2006 12.8158 6.19943 12.6744 6.22999 12.5382C6.2468 12.4768 6.27556 12.4193 6.31461 12.369C6.35367 12.3187 6.40225 12.2766 6.45758 12.2451C6.51292 12.2137 6.57392 12.1934 6.63709 12.1855C6.70027 12.1776 6.76439 12.1822 6.82577 12.1991C6.92783 12.2311 7.01644 12.296 7.07778 12.3836C7.13911 12.4712 7.16972 12.5767 7.16483 12.6835C7.2933 12.6835 7.4165 12.7345 7.50734 12.8254C7.59817 12.9162 7.64921 13.0394 7.64921 13.1679C7.64861 13.2327 7.63499 13.2968 7.60916 13.3563C7.58332 13.4158 7.5458 13.4695 7.49882 13.5143C7.45184 13.559 7.39635 13.5938 7.33565 13.6167C7.27495 13.6396 7.21027 13.65 7.14546 13.6474H7.15514ZM10.9962 15.8513C10.8408 16.0761 10.6357 16.2621 10.3968 16.3949C10.158 16.5278 9.89185 16.6039 9.6189 16.6175C9.34595 16.6311 9.07353 16.5817 8.82271 16.4732C8.57188 16.3647 8.34935 16.2 8.17233 15.9918C7.77514 15.5074 8.45811 14.8293 8.86014 15.3088C8.93117 15.4132 9.02566 15.4996 9.13604 15.5609C9.24642 15.6223 9.36963 15.6569 9.4958 15.6621C9.62197 15.6673 9.74761 15.6428 9.86265 15.5907C9.97768 15.5386 10.0789 15.4603 10.1583 15.3621C10.5216 14.8583 11.3644 15.3427 10.9865 15.8513H10.9962ZM12.4058 14.621C11.9214 14.9794 11.408 14.7082 11.0205 14.374C10.9493 14.2863 10.911 14.1766 10.9121 14.0637C10.9133 13.9508 10.9538 13.8418 11.0268 13.7556C11.0998 13.6695 11.2005 13.6115 11.3117 13.5917C11.4229 13.572 11.5374 13.5917 11.6356 13.6474C11.6356 13.6474 11.6356 13.599 11.6356 13.5748C11.7011 13.4643 11.8079 13.3844 11.9323 13.3526C12.0567 13.3208 12.1887 13.3397 12.2992 13.4052C12.4065 13.4619 12.4979 13.5446 12.565 13.6458C12.6321 13.7469 12.6728 13.8632 12.6834 13.9841C12.694 14.105 12.6742 14.2266 12.6257 14.3379C12.5772 14.4491 12.5016 14.5465 12.4058 14.621ZM13.1711 11.5694C12.6867 11.9569 12.0037 11.2788 12.4881 10.8816C12.5808 10.8258 12.6553 10.7444 12.7029 10.6473C12.7504 10.5501 12.7689 10.4413 12.7561 10.3339C12.7433 10.2265 12.6998 10.1251 12.6308 10.0418C12.5618 9.95854 12.4702 9.89695 12.367 9.86444C11.7761 9.66585 12.0328 8.73101 12.6237 8.9296C12.887 9.01136 13.1232 9.16269 13.3076 9.36761C13.4919 9.57252 13.6175 9.82342 13.6711 10.0938C13.7247 10.3642 13.7043 10.644 13.612 10.9037C13.5197 11.1635 13.359 11.3935 13.1469 11.5694H13.1711ZM13.888 7.69444C13.5973 8.22241 12.8272 7.79132 13.0306 7.26819V7.20522C13.0272 7.22282 13.0272 7.24091 13.0306 7.2585C13.0225 7.23758 13.007 7.22036 12.987 7.21007C12.8659 7.13741 12.6334 7.21007 12.5026 7.21007C12.3787 7.24411 12.2463 7.22751 12.1345 7.16393C12.0228 7.10034 11.9409 6.99497 11.9069 6.87101C11.8728 6.74704 11.8894 6.61462 11.953 6.50289C12.0166 6.39116 12.122 6.30927 12.2459 6.27522C12.4807 6.20476 12.7283 6.18776 12.9706 6.22547C13.2128 6.26319 13.4435 6.35467 13.6458 6.49319C13.8125 6.63837 13.9245 6.8362 13.9633 7.05382C14.002 7.27145 13.9652 7.49579 13.8589 7.6896L13.888 7.69444ZM15.5833 11.5162C15.1812 11.9279 14.5855 11.3854 14.818 10.9494C14.6895 10.9353 14.5719 10.8707 14.4911 10.7699C14.4102 10.6691 14.3727 10.5403 14.3869 10.4118C14.401 10.2833 14.4656 10.1657 14.5664 10.0849C14.6672 10.004 14.7961 9.96656 14.9245 9.98069C15.1031 9.97794 15.2783 10.0289 15.4276 10.1269C15.5768 10.225 15.6932 10.3656 15.7616 10.5305C15.8299 10.6955 15.8472 10.8772 15.8111 11.0521C15.775 11.2269 15.6872 11.3869 15.559 11.5113L15.5833 11.5162ZM18.1698 13.536C18.1069 13.6038 17.8841 13.5069 17.8211 13.4876C17.6516 13.4246 17.4965 13.3519 17.3367 13.289C17.4606 13.022 17.5706 12.7488 17.6661 12.4704C17.8162 12.7167 17.9505 12.9723 18.0681 13.2357C18.0536 13.2648 18.1844 13.4924 18.1456 13.5312L18.1698 13.536ZM13.0306 7.23913V7.17616C13.0151 7.19905 13.0067 7.22601 13.0064 7.25366L13.0306 7.23913Z" fill="#288B61"/>
</svg>