<svg width="20" height="20" viewBox="0 0 20 20" fill="none" xmlns="http://www.w3.org/2000/svg">
<path d="M10.8052 1.20273L13.1174 5.88721C13.1817 6.01756 13.2768 6.13031 13.3944 6.21574C13.512 6.30118 13.6486 6.35673 13.7925 6.37762L18.962 7.12894C19.1276 7.15298 19.2831 7.22289 19.4111 7.33075C19.539 7.43861 19.6342 7.58012 19.6859 7.73927C19.7376 7.89842 19.7437 8.06886 19.7035 8.2313C19.6634 8.39374 19.5786 8.54171 19.4587 8.65845L15.7174 12.3047C15.5058 12.5109 15.4099 12.8077 15.4592 13.0982L16.3423 18.2471C16.3705 18.412 16.3521 18.5814 16.289 18.7364C16.226 18.8913 16.1209 19.0255 15.9855 19.1239C15.8502 19.2222 15.69 19.2807 15.5232 19.2927C15.3563 19.3048 15.1894 19.2699 15.0414 19.192L10.417 16.7606C10.2882 16.693 10.145 16.6578 9.99962 16.6578C9.85423 16.6578 9.71102 16.693 9.58227 16.7606L4.95786 19.192C4.8098 19.2699 4.64291 19.3048 4.47606 19.2927C4.30922 19.2807 4.14907 19.2222 4.01373 19.1239C3.87839 19.0255 3.77325 18.8913 3.7102 18.7364C3.64715 18.5814 3.62871 18.412 3.65696 18.2471L4.54007 13.0982C4.56465 12.9549 4.55399 12.8078 4.509 12.6695C4.46402 12.5313 4.38606 12.4061 4.28186 12.3047L0.54055 8.65845C0.420678 8.54171 0.335871 8.39374 0.295722 8.2313C0.255572 8.06886 0.261684 7.89842 0.313366 7.73927C0.365047 7.58012 0.460235 7.43861 0.588161 7.33075C0.716088 7.22289 0.871647 7.15298 1.03724 7.12894L6.20676 6.37762C6.35061 6.35673 6.48723 6.30118 6.60484 6.21574C6.72245 6.13031 6.81752 6.01756 6.88186 5.88721L9.19407 1.20273C9.52579 0.536591 10.4761 0.536591 10.8052 1.20273Z" fill="#288B61"/>
</svg>