<svg width="13" height="19" viewBox="0 0 13 19" fill="none" xmlns="http://www.w3.org/2000/svg">
<path d="M4.28268 10.867C4.13965 10.7142 3.94191 10.6242 3.73273 10.6168C3.52354 10.6094 3.31993 10.6851 3.16643 10.8274C2.23042 11.6519 1.47924 12.6649 0.962162 13.8C0.44508 14.9351 0.173768 16.1667 0.166016 17.4141C0.166016 17.624 0.249423 17.8254 0.39789 17.9739C0.546356 18.1223 0.747719 18.2057 0.957682 18.2057C1.16765 18.2057 1.36901 18.1223 1.51748 17.9739C1.66594 17.8254 1.74935 17.624 1.74935 17.4141C1.75478 16.3835 1.98004 15.366 2.41008 14.4295C2.84012 13.493 3.46504 12.659 4.2431 11.9832C4.39593 11.8402 4.48589 11.6425 4.49331 11.4333C4.50072 11.2241 4.42499 11.0205 4.28268 10.867ZM12.3339 14.5403C12.039 13.6871 11.6116 12.8856 11.0673 12.1653C10.2528 11.1101 9.25854 10.207 8.13018 9.4974C9.90352 8.36531 12.8327 5.85573 12.8327 1.58073C12.8327 1.37077 12.7493 1.1694 12.6008 1.02094C12.4523 0.87247 12.251 0.789063 12.041 0.789062C11.8311 0.789063 11.6297 0.87247 11.4812 1.02094C11.3328 1.1694 11.2493 1.37077 11.2493 1.58073C11.2493 5.85573 7.6156 8.04865 6.49935 8.61865C5.73085 8.20906 5.01562 7.70654 4.36977 7.1224H6.49935C6.70931 7.1224 6.91068 7.03899 7.05914 6.89052C7.20761 6.74206 7.29102 6.54069 7.29102 6.33073C7.29102 6.12077 7.20761 5.9194 7.05914 5.77094C6.91068 5.62247 6.70931 5.53906 6.49935 5.53906H2.97643C2.65042 5.0447 2.38465 4.51316 2.18477 3.95573H8.87435C9.08431 3.95573 9.28568 3.87232 9.43414 3.72386C9.58261 3.57539 9.66602 3.37403 9.66602 3.16406C9.66602 2.9541 9.58261 2.75274 9.43414 2.60427C9.28568 2.4558 9.08431 2.3724 8.87435 2.3724H1.79685C1.76478 2.10973 1.74891 1.84534 1.74935 1.58073C1.74935 1.37077 1.66594 1.1694 1.51748 1.02094C1.36901 0.87247 1.16765 0.789063 0.957682 0.789062C0.747719 0.789063 0.546356 0.87247 0.39789 1.02094C0.249423 1.1694 0.166016 1.37077 0.166016 1.58073C0.166016 7.57365 5.94518 10.1228 6.1906 10.2257C7.08122 10.6537 7.90518 11.2083 8.63685 11.8724H6.49935C6.28939 11.8724 6.08802 11.9558 5.93956 12.1043C5.79109 12.2527 5.70768 12.4541 5.70768 12.6641C5.70768 12.874 5.79109 13.0754 5.93956 13.2239C6.08802 13.3723 6.28939 13.4557 6.49935 13.4557H10.0064C10.3346 13.9488 10.6005 14.4807 10.7981 15.0391H4.12435C3.91439 15.0391 3.71302 15.1225 3.56456 15.2709C3.41609 15.4194 3.33268 15.6208 3.33268 15.8307C3.33268 16.0407 3.41609 16.2421 3.56456 16.3905C3.71302 16.539 3.91439 16.6224 4.12435 16.6224H11.2018C11.2337 16.8851 11.2495 17.1495 11.2493 17.4141C11.2493 17.624 11.3328 17.8254 11.4812 17.9739C11.6297 18.1223 11.8311 18.2057 12.041 18.2057C12.251 18.2057 12.4523 18.1223 12.6008 17.9739C12.7493 17.8254 12.8327 17.624 12.8327 17.4141C12.8355 16.8316 12.7772 16.2505 12.6585 15.6803C12.5814 15.2921 12.4728 14.9109 12.3339 14.5403Z" fill="#288B61"/>
</svg>