<svg width="16" height="20" viewBox="0 0 16 20" fill="none" xmlns="http://www.w3.org/2000/svg">
<path d="M6.6553 0.449428C6.3053 0.236947 5.86158 0.274447 5.55533 0.543197C5.24283 0.805685 5.14281 1.2432 5.30532 1.61818C6.39907 4.18696 6.11156 5.41193 5.84281 5.91193C5.55534 6.43695 5.09281 6.57443 4.90531 6.60571C4.39906 6.69943 4.01781 5.69945 4.01156 5.69319C3.89281 5.34319 3.57406 5.09943 3.20533 5.06819C2.8303 5.0432 2.48656 5.22444 2.30533 5.54945C0.649064 8.56818 0.211552 11.3994 1.01157 13.9744C2.18032 17.7494 5.59905 19.5119 5.74283 19.5869C5.87405 19.6557 6.02408 19.6869 6.16156 19.6869C6.39281 19.6869 6.61158 19.6057 6.78656 19.4494C7.07408 19.1932 7.18031 18.7869 7.04905 18.4244C6.76158 17.6432 6.25533 15.3807 7.30532 14.2744C7.94905 13.5995 8.39907 12.9807 8.70531 12.4494C11.2178 16.3995 9.87406 17.6369 9.84908 17.6682C9.84282 17.6682 9.84282 17.6744 9.83657 17.6744C9.41157 17.9682 9.31155 18.5495 9.59906 18.9745C9.89283 19.3994 10.4678 19.5119 10.8991 19.2245C10.8991 19.2182 10.9053 19.2182 10.9116 19.212C13.9553 17.0807 15.4553 14.612 15.3678 11.8619C15.1803 5.73068 7.0053 0.661947 6.6553 0.449428Z" fill="#288B61"/>
</svg>