<svg width="18" height="16" viewBox="0 0 18 16" fill="none" xmlns="http://www.w3.org/2000/svg">
<path d="M1.64379 4.35882C3.39079 2.85882 4.77079 1.67282 8.51579 3.78882C10.3148 4.80482 11.7658 5.18882 12.9728 5.18682C15.0878 5.18682 16.4588 4.01082 17.6438 2.99382C17.8472 2.81688 17.9737 2.56768 17.9965 2.29905C18.0192 2.03042 17.9365 1.76348 17.7658 1.55482C17.6825 1.45243 17.5796 1.36778 17.463 1.30587C17.3464 1.24397 17.2187 1.20607 17.0872 1.19441C16.9557 1.18276 16.8233 1.19759 16.6976 1.23802C16.572 1.27846 16.4558 1.34368 16.3558 1.42982C14.6098 2.93182 13.2288 4.11782 9.48379 1.99982C4.53579 -0.793177 2.21779 1.19682 0.355789 2.79682C0.15254 2.97391 0.0262366 3.22318 0.00364913 3.4918C-0.0189384 3.76042 0.0639655 4.02729 0.234789 4.23582C0.318112 4.33804 0.421092 4.4225 0.537636 4.48421C0.65418 4.54593 0.78192 4.58363 0.913294 4.5951C1.04467 4.60657 1.17701 4.59157 1.30248 4.55098C1.42796 4.5104 1.54402 4.44506 1.64379 4.35882ZM16.3558 6.53682C14.6098 8.03682 13.2288 9.22482 9.48379 7.10682C4.53579 4.31182 2.21779 6.30282 0.355789 7.90182C0.15254 8.07891 0.0262366 8.32818 0.00364913 8.5968C-0.0189384 8.86542 0.0639655 9.13229 0.234789 9.34082C0.317968 9.44318 0.420838 9.52782 0.53731 9.58971C0.653782 9.6516 0.781487 9.6895 0.912867 9.70115C1.04425 9.71281 1.17663 9.69799 1.30218 9.65756C1.42773 9.61714 1.54389 9.55194 1.64379 9.46582C3.39079 7.96482 4.77079 6.77882 8.51579 8.89382C10.3148 9.91182 11.7658 10.2938 12.9728 10.2938C15.0878 10.2938 16.4588 9.11782 17.6438 8.09882C17.8473 7.92219 17.974 7.67313 17.9968 7.40459C18.0195 7.13605 17.9367 6.86922 17.7658 6.66082C17.6825 6.55839 17.5796 6.47371 17.463 6.41182C17.3464 6.34992 17.2185 6.31207 17.087 6.30051C16.9555 6.28894 16.823 6.3039 16.6974 6.34449C16.5718 6.38509 16.4556 6.45049 16.3558 6.53682ZM16.3558 11.6428C14.6098 13.1448 13.2288 14.3308 9.48379 12.2148C4.53579 9.41982 2.21779 11.4098 0.355789 13.0098C0.15254 13.1869 0.0262366 13.4362 0.00364913 13.7048C-0.0189384 13.9734 0.0639655 14.2403 0.234789 14.4488C0.31803 14.5512 0.420978 14.6357 0.537524 14.6975C0.654071 14.7593 0.781842 14.7971 0.913256 14.8085C1.04467 14.82 1.17705 14.805 1.30254 14.7643C1.42803 14.7236 1.54408 14.6582 1.64379 14.5718C3.39079 13.0718 4.77079 11.8868 8.51579 14.0018C10.3148 15.0178 11.7658 15.4018 12.9728 15.4018C15.0878 15.4018 16.4588 14.2238 17.6438 13.2068C17.8472 13.0299 17.9737 12.7807 17.9965 12.5121C18.0192 12.2434 17.9365 11.9765 17.7658 11.7678C17.6824 11.6655 17.5794 11.581 17.4629 11.5192C17.3463 11.4574 17.2186 11.4195 17.0872 11.4078C16.9557 11.3962 16.8233 11.411 16.6977 11.4513C16.5721 11.4917 16.4558 11.5568 16.3558 11.6428Z" fill="#288B61"/>
</svg>