<svg width="20" height="20" viewBox="0 0 20 20" fill="none" xmlns="http://www.w3.org/2000/svg">
<path d="M14.245 5.755C13.6875 5.19788 13.0256 4.75613 12.2972 4.45499C11.5688 4.15385 10.7882 3.99924 10 4V10L5.755 14.245C8.1 16.59 11.895 16.59 14.24 14.245C16.585 11.9 16.585 8.1 14.245 5.755ZM10 0C4.475 0 0 4.475 0 10C0 15.525 4.475 20 10 20C15.525 20 20 15.52 20 10C20 4.475 15.525 0 10 0ZM10 18C5.58 18 2 14.42 2 10C2 5.58 5.58 2 10 2C14.42 2 18 5.58 18 10C18 14.42 14.42 18 10 18Z" fill="#288B61"/>
</svg>