<svg width="21" height="19" viewBox="0 0 21 19" fill="none" xmlns="http://www.w3.org/2000/svg">
<path d="M6.90792 7.06961C8.79484 6.92138 10.1012 6.29756 10.7929 5.21667C11.7194 3.76829 11.1017 2.10373 11.0863 2.0327C10.9705 1.55964 10.7249 1.1283 10.3771 0.787279C10.0294 0.446256 9.59338 0.209089 9.11814 0.102487C8.64291 -0.00411452 8.14735 0.0240827 7.68728 0.183904C7.22721 0.343725 6.82089 0.628821 6.51409 1.00709C6.20729 1.38535 6.0122 1.84176 5.95077 2.32492C5.88935 2.80807 5.96404 3.29878 6.16643 3.74178C6.36882 4.18477 6.69088 4.56247 7.09633 4.83232C7.50178 5.10218 7.97452 5.25347 8.46131 5.26917C7.93432 5.46325 7.38193 5.57976 6.82145 5.61506H1.3491C1.25298 5.61506 1.15781 5.63399 1.06901 5.67077C0.980209 5.70755 0.899524 5.76146 0.83156 5.82943C0.763595 5.89739 0.709683 5.97808 0.672901 6.06688C0.636119 6.15568 0.617187 6.25085 0.617188 6.34697C0.617187 6.44308 0.636119 6.53826 0.672901 6.62706C0.709683 6.71586 0.763595 6.79654 0.83156 6.86451C0.899524 6.93247 0.980209 6.98638 1.06901 7.02317C1.15781 7.05995 1.25298 7.07888 1.3491 7.07888H6.90792V7.06961ZM12.8651 14.1695C12.1765 13.0886 10.8701 12.4648 8.98013 12.3165H5.71586C5.52956 12.3286 5.35485 12.4112 5.22719 12.5474C5.09952 12.6836 5.02848 12.8633 5.02848 13.05C5.02848 13.2367 5.09952 13.4164 5.22719 13.5526C5.35485 13.6888 5.52956 13.7713 5.71586 13.7834H8.89366C9.20506 13.8057 9.51459 13.849 9.82013 13.9131C9.3749 14.0837 8.98475 14.3727 8.69186 14.7489C8.39897 15.1252 8.21448 15.5743 8.15833 16.0477C8.10218 16.5212 8.17651 17.001 8.37328 17.4353C8.57005 17.8696 8.88178 18.2418 9.27477 18.5118C9.66776 18.7818 10.1271 18.9392 10.603 18.967C11.079 18.9949 11.5535 18.8921 11.9753 18.6699C12.3971 18.4476 12.7502 18.1142 12.9963 17.7059C13.2423 17.2975 13.3721 16.8296 13.3716 16.3528C13.4477 15.5891 13.2697 14.8217 12.8651 14.1695ZM20.2645 4.8677C20.1651 4.30213 19.9117 3.7749 19.5322 3.34389C19.1528 2.91288 18.6619 2.59475 18.1135 2.42442C17.5651 2.25409 16.9803 2.23815 16.4235 2.37835C15.8666 2.51855 15.3591 2.80947 14.9567 3.21917C14.5544 3.62887 14.2726 4.14151 14.1425 4.70082C14.0124 5.26013 14.0389 5.84449 14.219 6.38973C14.3992 6.93498 14.7262 7.42004 15.1639 7.79167C15.6017 8.1633 16.1334 8.40712 16.7007 8.49638C16.201 8.63364 15.689 8.72156 15.172 8.75888H8.15557C7.96927 8.77098 7.79456 8.85351 7.66689 8.98973C7.53923 9.12595 7.46819 9.30564 7.46819 9.49234C7.46819 9.67903 7.53923 9.85872 7.66689 9.99494C7.79456 10.1312 7.96927 10.2137 8.15557 10.2258H15.2585C17.4697 10.0498 18.9922 9.32712 19.792 8.06403C20.3611 7.10123 20.5307 5.95396 20.2645 4.8677ZM2.77895 8.75888C2.59265 8.77098 2.41794 8.85351 2.29028 8.98973C2.16261 9.12595 2.09157 9.30564 2.09157 9.49234C2.09157 9.67903 2.16261 9.85872 2.29028 9.99494C2.41794 10.1312 2.59265 10.2137 2.77895 10.2258H5.73131C5.83163 10.2323 5.93222 10.2182 6.02686 10.1843C6.1215 10.1503 6.20818 10.0974 6.28153 10.0286C6.35488 9.95989 6.41335 9.87682 6.45333 9.78458C6.4933 9.69233 6.51392 9.59287 6.51392 9.49234C6.51392 9.3918 6.4933 9.29234 6.45333 9.2001C6.41335 9.10785 6.35488 9.02479 6.28153 8.95604C6.20818 8.88729 6.1215 8.83433 6.02686 8.80042C5.93222 8.7665 5.83163 8.75237 5.73131 8.75888H2.77895ZM3.08778 12.3134H2.2941C2.19378 12.3069 2.09319 12.3211 1.99855 12.355C1.90391 12.3889 1.81723 12.4419 1.74388 12.5106C1.67052 12.5793 1.61205 12.6624 1.57208 12.7547C1.53211 12.8469 1.51148 12.9464 1.51148 13.0469C1.51148 13.1474 1.53211 13.2469 1.57208 13.3391C1.61205 13.4314 1.67052 13.5144 1.74388 13.5832C1.81723 13.6519 1.90391 13.7049 1.99855 13.7388C2.09319 13.7727 2.19378 13.7869 2.2941 13.7804H3.08778C3.27407 13.7683 3.44879 13.6857 3.57645 13.5495C3.70412 13.4133 3.77516 13.2336 3.77516 13.0469C3.77516 12.8602 3.70412 12.6805 3.57645 12.5443C3.44879 12.4081 3.27407 12.3255 3.08778 12.3134Z" fill="#288B61"/>
</svg>