<svg width="18" height="18" viewBox="0 0 18 18" fill="none" xmlns="http://www.w3.org/2000/svg">
<path d="M15.2828 3.23166C14.4473 2.40202 13.4545 1.74762 12.3626 1.30686C11.2707 0.866112 10.1018 0.647887 8.92451 0.664996C6.71437 0.659471 4.59256 1.53215 3.02585 3.09104C1.45914 4.64994 0.575864 6.76736 0.570339 8.9775C0.564813 11.1876 1.43749 13.3094 2.99638 14.8762C4.55528 16.4429 6.6727 17.3261 8.88284 17.3317C9.35908 17.3398 9.82454 17.1895 10.2061 16.9044C10.5877 16.6194 10.8639 16.2156 10.9912 15.7567C11.0723 15.4252 11.0715 15.079 10.9887 14.7479C10.906 14.4168 10.7438 14.1109 10.5162 13.8567C10.4635 13.7968 10.4292 13.723 10.4172 13.6442C10.4053 13.5654 10.4162 13.4848 10.4486 13.412C10.4811 13.3392 10.5337 13.2772 10.6004 13.2334C10.667 13.1896 10.7448 13.1659 10.8245 13.165H12.1995C13.4936 13.171 14.7421 12.6873 15.6943 11.8108C16.6465 10.9344 17.2318 9.73019 17.3328 8.44C17.3638 7.47801 17.198 6.51982 16.8455 5.62421C16.493 4.7286 15.9612 3.91444 15.2828 3.23166ZM4.69951 11.2817C4.4949 11.4207 4.25363 11.4959 4.00625 11.4978C3.75887 11.4996 3.5165 11.4281 3.30983 11.2921C3.10317 11.1561 2.94149 10.9619 2.84528 10.734C2.74907 10.506 2.72266 10.2547 2.76937 10.0118C2.81609 9.76883 2.93385 9.54522 3.10773 9.36925C3.28161 9.19327 3.50379 9.07285 3.74615 9.02323C3.98851 8.97361 4.24014 8.99702 4.46919 9.09049C4.69824 9.18397 4.8944 9.3433 5.03284 9.54833C5.1256 9.68375 5.1906 9.83622 5.22406 9.99691C5.25753 10.1576 5.2588 10.3233 5.2278 10.4845C5.1968 10.6457 5.13415 10.7992 5.04347 10.936C4.95279 11.0728 4.83588 11.1903 4.69951 11.2817ZM5.91617 6.70666C5.7976 6.92626 5.61602 7.10534 5.39479 7.22085C5.17356 7.33635 4.92283 7.38299 4.67487 7.35476C4.4269 7.32653 4.19307 7.22473 4.00346 7.06245C3.81386 6.90018 3.67718 6.68486 3.611 6.44423C3.54483 6.2036 3.5522 5.94867 3.63216 5.71226C3.71213 5.47586 3.86103 5.2688 4.05969 5.11775C4.25835 4.9667 4.49767 4.87857 4.74685 4.86471C4.99603 4.85086 5.24365 4.9119 5.45784 5.04C5.73421 5.20528 5.93613 5.47084 6.02152 5.78134C6.1069 6.09183 6.06917 6.42331 5.91617 6.70666ZM8.16617 4.83166C7.91894 4.83166 7.67727 4.75835 7.47171 4.621C7.26615 4.48365 7.10593 4.28842 7.01132 4.06002C6.91671 3.83161 6.89196 3.58028 6.94019 3.3378C6.98842 3.09532 7.10747 2.87259 7.28229 2.69778C7.4571 2.52296 7.67983 2.40391 7.92231 2.35568C8.16478 2.30745 8.41612 2.3322 8.64453 2.42681C8.87293 2.52142 9.06816 2.68164 9.20551 2.8872C9.34286 3.09276 9.41617 3.33444 9.41617 3.58166C9.41617 3.91318 9.28448 4.23113 9.05006 4.46555C8.81563 4.69997 8.49769 4.83166 8.16617 4.83166ZM12.9578 5.49833C12.7437 5.62642 12.496 5.68747 12.2469 5.67361C11.9977 5.65976 11.7583 5.57163 11.5597 5.42058C11.361 5.26953 11.2121 5.06247 11.1322 4.82606C11.0522 4.58966 11.0448 4.33473 11.111 4.0941C11.1772 3.85346 11.3139 3.63815 11.5035 3.47587C11.6931 3.3136 11.9269 3.21179 12.1749 3.18356C12.4228 3.15533 12.6736 3.20197 12.8948 3.31748C13.116 3.43298 13.2976 3.61206 13.4162 3.83166C13.5692 4.11502 13.6069 4.44649 13.5215 4.75699C13.4361 5.06748 13.2342 5.33305 12.9578 5.49833Z" fill="#288B61"/>
</svg>