<svg width="15" height="18" viewBox="0 0 15 18" fill="none" xmlns="http://www.w3.org/2000/svg">
<path d="M14.6875 16.0714C14.7786 16.0714 14.8535 16.1016 14.9121 16.1618C14.9707 16.2221 15 16.2991 15 16.3929V17.6786C15 17.7723 14.9707 17.8493 14.9121 17.9096C14.8535 17.9699 14.7786 18 14.6875 18H0.3125C0.221354 18 0.146484 17.9699 0.0878906 17.9096C0.0292969 17.8493 0 17.7723 0 17.6786V16.3929C0 16.2991 0.0292969 16.2221 0.0878906 16.1618C0.146484 16.1016 0.221354 16.0714 0.3125 16.0714H14.6875ZM1.26953 15.4286C1.28906 15.0603 1.34115 14.702 1.42578 14.3538C1.51042 14.0056 1.60807 13.6875 1.71875 13.3996C1.82943 13.1116 1.97917 12.8203 2.16797 12.5257C2.35677 12.231 2.53092 11.9766 2.69043 11.7623C2.84993 11.548 3.0599 11.3153 3.32031 11.0642C3.58073 10.8131 3.79557 10.6122 3.96484 10.4615C4.13411 10.3108 4.36361 10.1267 4.65332 9.90904C4.94303 9.69141 5.15951 9.53237 5.30273 9.43192C5.44596 9.33147 5.65755 9.1875 5.9375 9C5.65755 8.8125 5.44596 8.66853 5.30273 8.56808C5.15951 8.46763 4.94303 8.30859 4.65332 8.09096C4.36361 7.87333 4.13411 7.68917 3.96484 7.5385C3.79557 7.38783 3.58073 7.18694 3.32031 6.93583C3.0599 6.68471 2.84993 6.45201 2.69043 6.23772C2.53092 6.02344 2.35677 5.76897 2.16797 5.47433C1.97917 5.17969 1.82943 4.88839 1.71875 4.60045C1.60807 4.3125 1.51042 3.99442 1.42578 3.64621C1.34115 3.29799 1.28906 2.93973 1.26953 2.57143H13.7305C13.7109 2.93973 13.6589 3.29799 13.5742 3.64621C13.4896 3.99442 13.3919 4.3125 13.2812 4.60045C13.1706 4.88839 13.0208 5.17969 12.832 5.47433C12.6432 5.76897 12.4691 6.02344 12.3096 6.23772C12.1501 6.45201 11.9401 6.68471 11.6797 6.93583C11.4193 7.18694 11.2044 7.38783 11.0352 7.5385C10.8659 7.68917 10.6364 7.87333 10.3467 8.09096C10.057 8.30859 9.8405 8.46763 9.69727 8.56808C9.55404 8.66853 9.34245 8.8125 9.0625 9C9.34245 9.1875 9.55404 9.33147 9.69727 9.43192C9.8405 9.53237 10.057 9.69141 10.3467 9.90904C10.6364 10.1267 10.8659 10.3108 11.0352 10.4615C11.2044 10.6122 11.4193 10.8131 11.6797 11.0642C11.9401 11.3153 12.1501 11.548 12.3096 11.7623C12.4691 11.9766 12.6432 12.231 12.832 12.5257C13.0208 12.8203 13.1706 13.1116 13.2812 13.3996C13.3919 13.6875 13.4896 14.0056 13.5742 14.3538C13.6589 14.702 13.7109 15.0603 13.7305 15.4286H1.26953ZM14.6875 0C14.7786 0 14.8535 0.0301339 14.9121 0.0904018C14.9707 0.15067 15 0.227679 15 0.321429V1.60714C15 1.70089 14.9707 1.7779 14.9121 1.83817C14.8535 1.89844 14.7786 1.92857 14.6875 1.92857H0.3125C0.221354 1.92857 0.146484 1.89844 0.0878906 1.83817C0.0292969 1.7779 0 1.70089 0 1.60714V0.321429C0 0.227679 0.0292969 0.15067 0.0878906 0.0904018C0.146484 0.0301339 0.221354 0 0.3125 0H14.6875Z" fill="#288B61"/>
</svg>