<svg width="19" height="19" viewBox="0 0 19 19" fill="none" xmlns="http://www.w3.org/2000/svg">
<path d="M18.0695 6.42971C17.1195 5.61429 17.1432 5.63804 17.0997 5.60637C16.8961 5.48508 16.6578 5.43517 16.4226 5.46457C16.1875 5.49397 15.9688 5.60098 15.8013 5.76867C15.7611 5.80609 15.7108 5.83091 15.6566 5.84006C15.6025 5.84921 15.5468 5.84228 15.4965 5.82012C15.4234 5.31435 15.2063 4.8403 14.8711 4.4545L15.1205 4.32783C15.335 4.21939 15.5151 4.05356 15.6409 3.84879C15.7667 3.64403 15.8332 3.40836 15.833 3.16804C15.8327 3.0735 15.8589 2.98076 15.9085 2.90032C15.9582 2.81988 16.0294 2.75493 16.114 2.71283L16.7355 2.40408C16.8295 2.35684 16.9008 2.27421 16.9338 2.17437C16.9669 2.07452 16.9589 1.96564 16.9116 1.87169C16.8644 1.77773 16.7818 1.70638 16.6819 1.67335C16.5821 1.64032 16.4732 1.6483 16.3793 1.69554C15.7736 1.98054 15.0413 2.23387 15.0413 3.16804C15.0413 3.56387 14.7643 3.61929 14.214 3.89637C13.8996 3.69091 13.5445 3.55588 13.173 3.50054C13.148 3.45087 13.1396 3.39453 13.1488 3.33972C13.1581 3.2849 13.1846 3.23447 13.2245 3.19575C13.3995 3.01977 13.5075 2.78818 13.5299 2.541C13.5523 2.29382 13.4877 2.04658 13.3472 1.842L12.5555 0.927624C12.5217 0.888118 12.4805 0.855654 12.4341 0.832085C12.3878 0.808517 12.3373 0.794305 12.2855 0.790262C12.2336 0.786218 12.1815 0.792423 12.1321 0.808521C12.0827 0.824618 12.0369 0.850294 11.9974 0.884082C11.9579 0.91787 11.9254 0.959109 11.9018 1.00544C11.8783 1.05178 11.8641 1.1023 11.86 1.15413C11.856 1.20595 11.8622 1.25807 11.8783 1.3075C11.8944 1.35693 11.92 1.4027 11.9538 1.44221L12.7099 2.32492C12.8761 2.67721 12.2784 2.72075 12.3576 3.51242C11.8597 3.57468 11.39 3.77794 11.0038 4.09825C10.8728 3.75511 10.6188 3.47294 10.2913 3.30658C9.74113 3.03346 9.95487 2.47929 10.0578 1.97658C10.0783 1.8716 10.0562 1.76279 9.99644 1.67408C9.93668 1.58537 9.84413 1.52403 9.73915 1.50356C9.63416 1.48309 9.52535 1.50516 9.43664 1.56492C9.34793 1.62468 9.2866 1.71723 9.26612 1.82221L9.14738 2.42783C9.08713 2.74206 9.13202 3.06738 9.2751 3.35355C9.41819 3.63972 9.65151 3.87082 9.93904 4.01117C10.0184 4.05174 10.089 4.10759 10.1468 4.17552C10.2045 4.24345 10.2482 4.32211 10.2755 4.407L10.3784 4.71971L9.29779 5.80033C8.708 4.70387 7.91633 5.357 7.54029 4.27242C7.52392 4.22303 7.49798 4.17736 7.46395 4.138C7.42993 4.09864 7.38848 4.06637 7.34198 4.04303C7.29549 4.01969 7.24485 4.00574 7.19296 4.00197C7.14107 3.9982 7.08894 4.00469 7.03956 4.02106C6.99018 4.03744 6.94451 4.06338 6.90515 4.0974C6.86579 4.13143 6.83352 4.17287 6.81018 4.21937C6.78684 4.26587 6.77289 4.3165 6.76912 4.36839C6.76535 4.42028 6.77183 4.47241 6.78821 4.52179C7.33446 6.16054 8.37154 5.39262 8.69217 6.31492C8.71987 6.39408 8.8505 6.23179 7.44529 7.637C7.13258 7.94971 7.24342 7.94575 7.14842 7.91408C7.06323 7.88743 6.98429 7.84391 6.91629 7.78611C6.84828 7.7283 6.79261 7.6574 6.75258 7.57762C6.61224 7.2901 6.38114 7.05677 6.09497 6.91369C5.8088 6.7706 5.48348 6.72571 5.16925 6.78596L4.56363 6.90471C4.45864 6.92518 4.36609 6.98652 4.30634 7.07522C4.24658 7.16393 4.22451 7.27275 4.24498 7.37773C4.26545 7.48271 4.32679 7.57526 4.4155 7.63502C4.5042 7.69477 4.61302 7.71685 4.718 7.69637C5.23654 7.59346 5.77883 7.39158 6.048 7.93387C6.20899 8.24927 6.47907 8.49544 6.808 8.62658C6.73446 8.81509 6.68396 9.0118 6.65758 9.21242C6.50241 9.20161 6.34665 9.22234 6.1997 9.27336C6.05276 9.32438 5.91767 9.40464 5.80258 9.50929C5.60862 9.70325 5.48196 9.55679 4.51612 8.97887C4.4278 8.94247 4.32928 8.93923 4.23876 8.96977C4.14824 9.0003 4.07181 9.06255 4.02358 9.14502C3.97535 9.22748 3.95858 9.32461 3.97635 9.41848C3.99413 9.51235 4.04525 9.59662 4.12029 9.65575L5.07425 10.2297C5.27786 10.351 5.51611 10.4009 5.75129 10.3715C5.98646 10.3421 6.2051 10.2351 6.37258 10.0674C6.4128 10.03 6.4631 10.0052 6.51727 9.99602C6.57144 9.98688 6.6271 9.99381 6.67738 10.016C6.72895 10.402 6.86403 10.7721 7.07321 11.1005C6.85146 11.2056 6.66414 11.3715 6.53308 11.579C6.40203 11.7864 6.33264 12.0268 6.333 12.2722C6.33329 12.3667 6.30712 12.4595 6.25746 12.5399C6.20779 12.6204 6.13661 12.6853 6.05196 12.7274L5.42258 13.0639C5.32862 13.1111 5.25728 13.1937 5.22425 13.2936C5.19121 13.3934 5.1992 13.5023 5.24644 13.5963C5.29368 13.6902 5.37631 13.7616 5.47615 13.7946C5.576 13.8276 5.68488 13.8197 5.77883 13.7724C6.39237 13.4597 7.12467 13.2064 7.12467 12.2722C7.12467 11.9555 7.32654 11.8566 7.62738 11.7062C8.01819 12.032 8.49023 12.2454 8.993 12.3237C9.01678 12.3736 9.02459 12.4296 9.01538 12.4842C9.00618 12.5387 8.98039 12.5891 8.94154 12.6285C8.77387 12.7961 8.66717 13.015 8.63847 13.2503C8.60978 13.4856 8.66073 13.7238 8.78321 13.9268L9.35321 14.8807C9.41234 14.9558 9.49661 15.0069 9.59048 15.0247C9.68434 15.0425 9.78147 15.0257 9.86394 14.9775C9.94641 14.9292 10.0087 14.8528 10.0392 14.7623C10.0697 14.6718 10.0665 14.5732 10.0301 14.4849L9.46008 13.5349C9.25029 13.1826 9.88363 13.1391 9.8005 12.3474C10.0001 12.3244 10.1957 12.2752 10.3824 12.201C10.5191 12.526 10.7676 12.7914 11.083 12.9491C11.9815 13.3964 10.8178 14.5799 11.6292 14.7422C11.6802 14.7526 11.7327 14.7529 11.7837 14.743C11.8348 14.7331 11.8834 14.7133 11.9268 14.6846C11.9701 14.6559 12.0074 14.619 12.0365 14.5759C12.0656 14.5328 12.0859 14.4844 12.0963 14.4335L12.2151 13.8278C12.2753 13.5136 12.2304 13.1883 12.0874 12.9021C11.9443 12.6159 11.7109 12.3848 11.4234 12.2445C11.3372 12.2011 11.2612 12.1398 11.2004 12.0647C11.1397 11.9896 11.0956 11.9025 11.0711 11.8091C11.2611 11.6785 11.2492 11.6745 12.6307 10.293C13.6361 10.6295 12.8445 11.6705 14.4793 12.2168C14.5286 12.2332 14.5808 12.2397 14.6326 12.2359C14.6845 12.2321 14.7352 12.2182 14.7817 12.1948C14.8282 12.1715 14.8696 12.1392 14.9036 12.0999C14.9377 12.0605 14.9636 12.0148 14.98 11.9654C14.9964 11.9161 15.0028 11.8639 14.9991 11.812C14.9953 11.7602 14.9813 11.7095 14.958 11.663C14.9347 11.6165 14.9024 11.5751 14.863 11.541C14.8237 11.507 14.778 11.4811 14.7286 11.4647C13.6243 11.0966 14.3328 10.3287 13.2284 9.69533L14.309 8.61471C14.7049 8.75325 14.8751 8.78096 15.0097 9.05408C15.1325 9.29342 15.3192 9.49408 15.549 9.63382C15.7789 9.77355 16.043 9.84691 16.312 9.84575C16.613 9.82711 16.9114 9.77804 17.2026 9.69929C17.2546 9.68915 17.304 9.66888 17.3482 9.63962C17.3923 9.61036 17.4303 9.5727 17.4599 9.52877C17.4895 9.48485 17.5101 9.43553 17.5206 9.38362C17.5312 9.33172 17.5314 9.27825 17.5212 9.22627C17.5111 9.17429 17.4908 9.12481 17.4616 9.08067C17.4323 9.03652 17.3946 8.99857 17.3507 8.96898C17.3068 8.93939 17.2575 8.91874 17.2056 8.90822C17.1537 8.89769 17.1002 8.89749 17.0482 8.90762C16.5376 9.00658 15.9913 9.21637 15.7182 8.67012C15.5519 8.34263 15.2697 8.08869 14.9265 7.95762C15.2449 7.56675 15.449 7.09552 15.5163 6.59596C16.2843 6.66721 16.3436 6.08929 16.684 6.25158C17.6261 7.09075 17.6182 7.12637 17.8122 7.12637C17.8931 7.12638 17.9721 7.10159 18.0385 7.05533C18.1049 7.00908 18.1555 6.94358 18.1835 6.86768C18.2116 6.79177 18.2156 6.70909 18.1953 6.63078C18.1749 6.55247 18.131 6.4823 18.0695 6.42971ZM8.31217 9.89721C8.20718 9.89721 8.1065 9.8555 8.03227 9.78127C7.95804 9.70704 7.91633 9.60636 7.91633 9.50137C7.91633 9.39639 7.95804 9.29571 8.03227 9.22148C8.1065 9.14724 8.20718 9.10554 8.31217 9.10554C8.41715 9.10554 8.51783 9.14724 8.59206 9.22148C8.6663 9.29571 8.708 9.39639 8.708 9.50137C8.708 9.60636 8.6663 9.70704 8.59206 9.78127C8.51783 9.8555 8.41715 9.89721 8.31217 9.89721ZM10.6872 9.89721C10.5822 9.89721 10.4815 9.8555 10.4073 9.78127C10.333 9.70704 10.2913 9.60636 10.2913 9.50137C10.2913 9.39639 10.333 9.29571 10.4073 9.22148C10.4815 9.14724 10.5822 9.10554 10.6872 9.10554C10.7921 9.10554 10.8928 9.14724 10.9671 9.22148C11.0413 9.29571 11.083 9.39639 11.083 9.50137C11.083 9.60636 11.0413 9.70704 10.9671 9.78127C10.8928 9.8555 10.7921 9.89721 10.6872 9.89721ZM10.6872 7.12637C10.5822 7.12637 10.4815 7.08467 10.4073 7.01044C10.333 6.9362 10.2913 6.83552 10.2913 6.73054C10.2913 6.62556 10.333 6.52488 10.4073 6.45064C10.4815 6.37641 10.5822 6.33471 10.6872 6.33471C10.7921 6.33471 10.8928 6.37641 10.9671 6.45064C11.0413 6.52488 11.083 6.62556 11.083 6.73054C11.083 6.83552 11.0413 6.9362 10.9671 7.01044C10.8928 7.08467 10.7921 7.12637 10.6872 7.12637ZM13.0622 6.73054C12.9056 6.73054 12.7525 6.68411 12.6223 6.59712C12.4922 6.51013 12.3907 6.38649 12.3308 6.24183C12.2708 6.09717 12.2552 5.938 12.2857 5.78443C12.3163 5.63086 12.3917 5.4898 12.5024 5.37908C12.6131 5.26836 12.7542 5.19297 12.9077 5.16242C13.0613 5.13187 13.2205 5.14755 13.3651 5.20747C13.5098 5.26739 13.6334 5.36886 13.7204 5.49905C13.8074 5.62924 13.8538 5.7823 13.8538 5.93887C13.8538 6.14884 13.7704 6.3502 13.622 6.49867C13.4735 6.64713 13.2721 6.73054 13.0622 6.73054ZM4.76946 16.8757C4.81503 16.7034 4.80108 16.5207 4.72988 16.3572L4.99904 16.1435C5.08093 16.0773 5.13319 15.9814 5.14432 15.8767C5.15546 15.772 5.12456 15.6672 5.05842 15.5853C4.99228 15.5034 4.89632 15.4512 4.79165 15.4401C4.68698 15.4289 4.58218 15.4598 4.50029 15.526L4.21133 15.7595L4.0055 15.5537L4.23904 15.3241C4.31358 15.2495 4.35545 15.1485 4.35545 15.043C4.35545 14.9376 4.31358 14.8365 4.23904 14.762C4.1645 14.6875 4.06341 14.6456 3.958 14.6456C3.85259 14.6456 3.7515 14.6875 3.67696 14.762L3.44737 14.9955L3.24154 14.7897L3.47508 14.5008C3.54122 14.4189 3.57212 14.3141 3.56099 14.2094C3.54985 14.1047 3.49759 14.0088 3.41571 13.9426C3.33382 13.8765 3.22902 13.8456 3.12435 13.8567C3.01968 13.8679 2.92372 13.9201 2.85758 14.002L2.64383 14.2712C2.47812 14.2065 2.29545 14.1995 2.12529 14.2514L1.86404 13.9901C1.7895 13.9156 1.68841 13.8737 1.583 13.8737C1.47759 13.8737 1.3765 13.9156 1.30196 13.9901C1.22742 14.0647 1.18555 14.1658 1.18555 14.2712C1.18555 14.3766 1.22742 14.4777 1.30196 14.5522L1.56321 14.8135C1.51763 14.9858 1.53158 15.1685 1.60279 15.332L1.33362 15.5458C1.27679 15.5987 1.23681 15.6673 1.21868 15.7429C1.20054 15.8184 1.20505 15.8977 1.23164 15.9707C1.25824 16.0437 1.30573 16.1073 1.36821 16.1535C1.43069 16.1997 1.50539 16.2265 1.583 16.2305C1.74925 16.2305 1.80071 16.1672 2.12133 15.9099L2.32717 16.1157L2.09362 16.3453C2.0378 16.4007 1.99973 16.4714 1.98426 16.5485C1.9688 16.6256 1.97664 16.7056 2.00679 16.7782C2.03694 16.8508 2.08803 16.9128 2.15355 16.9562C2.21907 16.9997 2.29604 17.0227 2.37467 17.0222C2.57258 17.0222 2.63987 16.9233 2.88529 16.6739L3.09112 16.8797L2.85758 17.1687C2.81039 17.2268 2.78068 17.2972 2.77189 17.3716C2.7631 17.446 2.77559 17.5213 2.80793 17.5889C2.84026 17.6565 2.8911 17.7135 2.95454 17.7533C3.01799 17.7931 3.09143 17.8141 3.16633 17.8139C3.39196 17.8139 3.45925 17.6872 3.68883 17.418C3.85229 17.4893 4.035 17.5032 4.20738 17.4576L4.46863 17.7189C4.54316 17.7934 4.64426 17.8353 4.74967 17.8353C4.85508 17.8353 4.95617 17.7934 5.03071 17.7189C5.10525 17.6443 5.14712 17.5432 5.14712 17.4378C5.14712 17.3324 5.10525 17.2313 5.03071 17.1568L4.76946 16.8757Z" fill="#288B61"/>
<path d="M16.2292 16.6302C16.6664 16.6302 17.0208 16.2758 17.0208 15.8385C17.0208 15.4013 16.6664 15.0469 16.2292 15.0469C15.7919 15.0469 15.4375 15.4013 15.4375 15.8385C15.4375 16.2758 15.7919 16.6302 16.2292 16.6302Z" fill="#288B61"/>
<path d="M11.4792 18.6068C11.9164 18.6068 12.2708 18.2523 12.2708 17.8151C12.2708 17.3779 11.9164 17.0234 11.4792 17.0234C11.0419 17.0234 10.6875 17.3779 10.6875 17.8151C10.6875 18.2523 11.0419 18.6068 11.4792 18.6068Z" fill="#288B61"/>
<path d="M1.1862 8.31771C1.62342 8.31771 1.97786 7.96327 1.97786 7.52604C1.97786 7.08882 1.62342 6.73438 1.1862 6.73438C0.748972 6.73438 0.394531 7.08882 0.394531 7.52604C0.394531 7.96327 0.748972 8.31771 1.1862 8.31771Z" fill="#288B61"/>
<path d="M1.1888 2.77344C1.7588 2.77344 1.63214 2.73385 1.70339 2.88823L1.37089 3.21677C1.29635 3.29131 1.25447 3.3924 1.25447 3.49781C1.25447 3.60322 1.29635 3.70432 1.37089 3.77885C1.44542 3.85339 1.54652 3.89527 1.65193 3.89527C1.75734 3.89527 1.85843 3.85339 1.93297 3.77885C2.3288 3.38302 2.22193 3.43844 2.3763 3.49385V3.96094C2.3763 4.06592 2.41801 4.1666 2.49224 4.24083C2.56647 4.31507 2.66715 4.35677 2.77214 4.35677C2.87712 4.35677 2.9778 4.31507 3.05203 4.24083C3.12627 4.1666 3.16797 4.06592 3.16797 3.96094V3.49385C3.3263 3.43844 3.21547 3.37906 3.6113 3.77885C3.68584 3.85339 3.78693 3.89527 3.89234 3.89527C3.99775 3.89527 4.09885 3.85339 4.17339 3.77885C4.24792 3.70432 4.2898 3.60322 4.2898 3.49781C4.2898 3.3924 4.24792 3.29131 4.17339 3.21677L3.84089 2.88823C3.91214 2.73385 3.78547 2.77344 4.35547 2.77344C4.46045 2.77344 4.56113 2.73173 4.63537 2.6575C4.7096 2.58327 4.7513 2.48259 4.7513 2.3776C4.7513 2.27262 4.7096 2.17194 4.63537 2.09771C4.56113 2.02347 4.46045 1.98177 4.35547 1.98177C3.78547 1.98177 3.91214 2.02135 3.84089 1.86698L4.17339 1.53844C4.24792 1.4639 4.2898 1.36281 4.2898 1.2574C4.2898 1.15198 4.24792 1.05089 4.17339 0.976354C4.09885 0.901817 3.99775 0.859943 3.89234 0.859943C3.78693 0.859943 3.68584 0.901817 3.6113 0.976354L3.28276 1.30885C3.12839 1.2376 3.16797 1.36427 3.16797 0.794271C3.16797 0.689289 3.12627 0.588608 3.05203 0.514374C2.9778 0.440141 2.87712 0.398438 2.77214 0.398438C2.66715 0.398438 2.56647 0.440141 2.49224 0.514374C2.41801 0.588608 2.3763 0.689289 2.3763 0.794271C2.3763 1.36427 2.41589 1.2376 2.26151 1.30885L1.93297 0.976354C1.89606 0.939447 1.85225 0.910171 1.80403 0.890197C1.7558 0.870223 1.70412 0.859943 1.65193 0.859943C1.59973 0.859943 1.54805 0.870223 1.49983 0.890197C1.45161 0.910171 1.40779 0.939447 1.37089 0.976354C1.29635 1.05089 1.25447 1.15198 1.25447 1.2574C1.25447 1.36281 1.29635 1.4639 1.37089 1.53844L1.70339 1.86698C1.63214 2.02135 1.7588 1.98177 1.1888 1.98177C1.08382 1.98177 0.983139 2.02347 0.908906 2.09771C0.834672 2.17194 0.792969 2.27262 0.792969 2.3776C0.792969 2.48259 0.834672 2.58327 0.908906 2.6575C0.983139 2.73173 1.08382 2.77344 1.1888 2.77344Z" fill="#288B61"/>
</svg>